<mxfile host="www.draw.io" modified="2020-02-29T00:02:06.852Z" agent="Mozilla/5.0 (Windows NT 10.0; Win64; x64) AppleWebKit/537.36 (KHTML, like Gecko) Chrome/79.0.3945.130 Safari/537.36" etag="Y7NqjRswn2ix9xuaehTn" version="12.7.9" type="github">
  <diagram id="kWcEelBGeHgBebEkHnBH" name="Page-1">
    <mxGraphModel dx="1422" dy="762" grid="1" gridSize="10" guides="1" tooltips="1" connect="1" arrows="1" fold="1" page="1" pageScale="1" pageWidth="827" pageHeight="1169" math="0" shadow="0">
      <root>
        <mxCell id="0" />
        <mxCell id="1" parent="0" />
        <mxCell id="agF6G3nApyZFt4K8N627-12" value="" style="shape=cube;whiteSpace=wrap;html=1;boundedLbl=1;backgroundOutline=1;darkOpacity=0.05;darkOpacity2=0.1;size=155;direction=east;fillColor=#dae8fc;strokeColor=#6c8ebf;gradientColor=#99CCFF;gradientDirection=north;shadow=0;flipV=0;flipH=1;" parent="1" vertex="1">
          <mxGeometry y="288.18" width="180" height="180" as="geometry" />
        </mxCell>
        <mxCell id="tSoKiZYMsN7kQP5f46Wx-58" value="" style="group;" vertex="1" connectable="0" parent="1">
          <mxGeometry x="560" y="209.99999999999994" width="180" height="289" as="geometry" />
        </mxCell>
        <mxCell id="tSoKiZYMsN7kQP5f46Wx-59" value="" style="shape=parallelogram;perimeter=parallelogramPerimeter;whiteSpace=wrap;html=1;portConstraintRotation=0;size=0.2;portConstraint=north;rotation=-90;flipH=1;fillColor=#e6d0de;strokeColor=#996185;gradientColor=#d5739d;" vertex="1" parent="tSoKiZYMsN7kQP5f46Wx-58">
          <mxGeometry x="-60" y="60" width="240" height="120" as="geometry" />
        </mxCell>
        <mxCell id="tSoKiZYMsN7kQP5f46Wx-60" value="" style="triangle;whiteSpace=wrap;html=1;shadow=0;rotation=-135;strokeColor=#996185;fillColor=#e6d0de;gradientColor=#d5739d;" vertex="1" parent="tSoKiZYMsN7kQP5f46Wx-58">
          <mxGeometry x="9.25" y="195.41000000000003" width="8.02" height="14.59" as="geometry" />
        </mxCell>
        <mxCell id="tSoKiZYMsN7kQP5f46Wx-61" value="" style="shape=parallelogram;perimeter=parallelogramPerimeter;whiteSpace=wrap;html=1;portConstraintRotation=0;size=0.2;portConstraint=north;rotation=-90;flipH=1;fillColor=#e6d0de;strokeColor=#996185;shadow=0;gradientDirection=east;gradientColor=#d5739d;" vertex="1" parent="tSoKiZYMsN7kQP5f46Wx-58">
          <mxGeometry x="-49.5" y="60.5" width="239" height="120" as="geometry" />
        </mxCell>
        <mxCell id="tSoKiZYMsN7kQP5f46Wx-62" value="" style="rounded=0;whiteSpace=wrap;html=1;shadow=0;fillColor=#e6d0de;strokeColor=#996185;gradientColor=#d5739d;" vertex="1" parent="tSoKiZYMsN7kQP5f46Wx-58">
          <mxGeometry y="49" width="10" height="191" as="geometry" />
        </mxCell>
        <mxCell id="tSoKiZYMsN7kQP5f46Wx-63" value="" style="endArrow=none;html=1;exitX=1;exitY=1;exitDx=0;exitDy=0;entryX=1;entryY=1;entryDx=0;entryDy=0;fillColor=#e6d0de;strokeColor=#996185;gradientColor=#d5739d;" edge="1" parent="tSoKiZYMsN7kQP5f46Wx-58" source="tSoKiZYMsN7kQP5f46Wx-61" target="tSoKiZYMsN7kQP5f46Wx-59">
          <mxGeometry width="50" height="50" relative="1" as="geometry">
            <mxPoint x="100" y="21.995000000000005" as="sourcePoint" />
            <mxPoint x="90" y="22" as="targetPoint" />
          </mxGeometry>
        </mxCell>
        <mxCell id="tSoKiZYMsN7kQP5f46Wx-64" value="" style="shape=parallelogram;perimeter=parallelogramPerimeter;whiteSpace=wrap;html=1;portConstraintRotation=0;size=0.2;portConstraint=north;rotation=-90;flipH=1;fillColor=#e6d0de;strokeColor=#996185;gradientColor=#d5739d;" vertex="1" parent="tSoKiZYMsN7kQP5f46Wx-58">
          <mxGeometry x="-36" y="90" width="240" height="120" as="geometry" />
        </mxCell>
        <mxCell id="tSoKiZYMsN7kQP5f46Wx-65" value="" style="triangle;whiteSpace=wrap;html=1;shadow=0;rotation=-135;strokeColor=#996185;fillColor=#e6d0de;gradientColor=#d5739d;" vertex="1" parent="tSoKiZYMsN7kQP5f46Wx-58">
          <mxGeometry x="33.25" y="225.41000000000003" width="8.02" height="14.59" as="geometry" />
        </mxCell>
        <mxCell id="tSoKiZYMsN7kQP5f46Wx-66" value="" style="shape=parallelogram;perimeter=parallelogramPerimeter;whiteSpace=wrap;html=1;portConstraintRotation=0;size=0.2;portConstraint=north;rotation=-90;flipH=1;fillColor=#e6d0de;strokeColor=#996185;shadow=0;gradientDirection=east;gradientColor=#d5739d;" vertex="1" parent="tSoKiZYMsN7kQP5f46Wx-58">
          <mxGeometry x="-25.5" y="90.5" width="239" height="120" as="geometry" />
        </mxCell>
        <mxCell id="tSoKiZYMsN7kQP5f46Wx-67" value="" style="rounded=0;whiteSpace=wrap;html=1;shadow=0;fillColor=#e6d0de;strokeColor=#996185;gradientColor=#d5739d;" vertex="1" parent="tSoKiZYMsN7kQP5f46Wx-58">
          <mxGeometry x="24" y="79" width="10" height="191" as="geometry" />
        </mxCell>
        <mxCell id="tSoKiZYMsN7kQP5f46Wx-68" value="" style="endArrow=none;html=1;exitX=1;exitY=1;exitDx=0;exitDy=0;entryX=1;entryY=1;entryDx=0;entryDy=0;fillColor=#e6d0de;strokeColor=#996185;gradientColor=#d5739d;" edge="1" parent="tSoKiZYMsN7kQP5f46Wx-58" source="tSoKiZYMsN7kQP5f46Wx-66" target="tSoKiZYMsN7kQP5f46Wx-64">
          <mxGeometry width="50" height="50" relative="1" as="geometry">
            <mxPoint x="124" y="51.995000000000005" as="sourcePoint" />
            <mxPoint x="114" y="52" as="targetPoint" />
          </mxGeometry>
        </mxCell>
        <mxCell id="tSoKiZYMsN7kQP5f46Wx-69" value="" style="shape=parallelogram;perimeter=parallelogramPerimeter;whiteSpace=wrap;html=1;portConstraintRotation=0;size=0.2;portConstraint=north;rotation=-90;flipH=1;fillColor=#e6d0de;strokeColor=#996185;gradientColor=#d5739d;" vertex="1" parent="tSoKiZYMsN7kQP5f46Wx-58">
          <mxGeometry x="-10" y="109" width="240" height="120" as="geometry" />
        </mxCell>
        <mxCell id="tSoKiZYMsN7kQP5f46Wx-70" value="" style="triangle;whiteSpace=wrap;html=1;shadow=0;rotation=-135;strokeColor=#996185;fillColor=#e6d0de;gradientColor=#d5739d;" vertex="1" parent="tSoKiZYMsN7kQP5f46Wx-58">
          <mxGeometry x="59.25" y="244.41000000000003" width="8.02" height="14.59" as="geometry" />
        </mxCell>
        <mxCell id="tSoKiZYMsN7kQP5f46Wx-71" value="" style="shape=parallelogram;perimeter=parallelogramPerimeter;whiteSpace=wrap;html=1;portConstraintRotation=0;size=0.2;portConstraint=north;rotation=-90;flipH=1;fillColor=#e6d0de;strokeColor=#996185;shadow=0;gradientDirection=east;gradientColor=#d5739d;" vertex="1" parent="tSoKiZYMsN7kQP5f46Wx-58">
          <mxGeometry x="0.5" y="109.5" width="239" height="120" as="geometry" />
        </mxCell>
        <mxCell id="tSoKiZYMsN7kQP5f46Wx-72" value="" style="rounded=0;whiteSpace=wrap;html=1;shadow=0;fillColor=#e6d0de;strokeColor=#996185;gradientColor=#d5739d;" vertex="1" parent="tSoKiZYMsN7kQP5f46Wx-58">
          <mxGeometry x="50" y="98" width="10" height="191" as="geometry" />
        </mxCell>
        <mxCell id="tSoKiZYMsN7kQP5f46Wx-73" value="" style="endArrow=none;html=1;exitX=1;exitY=1;exitDx=0;exitDy=0;entryX=1;entryY=1;entryDx=0;entryDy=0;fillColor=#e6d0de;strokeColor=#996185;gradientColor=#d5739d;" edge="1" parent="tSoKiZYMsN7kQP5f46Wx-58" source="tSoKiZYMsN7kQP5f46Wx-71" target="tSoKiZYMsN7kQP5f46Wx-69">
          <mxGeometry width="50" height="50" relative="1" as="geometry">
            <mxPoint x="150" y="70.995" as="sourcePoint" />
            <mxPoint x="140" y="71" as="targetPoint" />
          </mxGeometry>
        </mxCell>
        <mxCell id="tSoKiZYMsN7kQP5f46Wx-97" value="" style="shape=image;imageAspect=0;aspect=fixed;verticalLabelPosition=bottom;verticalAlign=top;strokeColor=#0BB8AC;gradientColor=#FF9999;image=data:image/png,iVBORw0KGgoAAAANSUhEUgAAAIgAAABqCAIAAADoVI6MAAAAA3NCSVQICAjb4U/gAAAgAElEQVR4nOy8a8xm13Ue9qy19j7nvJfvOneScyEpUpQo6n6xrTqWFQu25dapUduNCxdt07SFGxgw+qNu0KBtirQB0gucFKnRNE4aFI7TNm1qO3atRpEtWRItUaIskRQpUuQMOfeZ7/7ezmXv9fTHOR9J2ZwmQVugP3QGmO973znvmfOetddaz3rWs7a88sor+O7x/79DHn300X/ySSIk/9mu+8/+kf+HV/gnnv9Pf8F/yjNFBMD/uzf53eO7x3eP7x7fPb57/H9+yHe8EMjrb/DN/yzD6z/6ieHte6YzDhnyj54iEAjfdD3y+K+3uMYfu50/8g34Vr//3x+vn/lWd/fWJ7/5zNff4Vvf1PGtU6R/CP/kG+N3fv83rmqGH/h+eIlIjGpZrzW4hKzbPkVtwTStNavxahpGAqml6dRndVcugzZy5LnWrC4H5OmmsFWctTDKOoqtMBX1GWbBpIqWJPl6MzlZrFWbokolHNKyPWyv3Z7dqTsDgkih2IudFUzGHciuxaMwajVmsSwFEQiB9I+GAkLEoQKlA9T+i0pKAkAhIEhIhoKqEFIiRQAlRZwAQRf2j1kAQoWiEEIcYhSIOBwQBRxKQUK/urR/6q5OChwKCYIUvKl8OWE98Xxa0rYjUDonEwpXTUCSwdAGV9448j+48oZlwhuGUfvw+5wVqySnGt3uiiLruCnua09qG4VajxeH1dHZ0XbUsCP7LHw/r0Z1USzDqz47QFe2ulfjodl2tRjdmOfO8YBMz8VNC7zNHavSehW62B5tH5x+cHRp8wHVMCy6hHzUvnLt5pcP75iiohYuV4xWuBiv0C7L5FaxOQ/jTkMr4yQFYRQRQtxBONQ1qAucWUyoIELXEIBC6eoOdRrdTIQpFK5KKFxBAFQmzRlQiEI8q7gGCE2yS6SISgIIKAERGmoIREAqhYIcmCFIYo5S2Y66o43uaCsfnmhXD3bNg+CE2nRMnY5cg4tTCNLA4Cnm5251b20YCBQwQUlEUS1ohqqS4MkCJEm3hC4MTQhahrpMHTV4qEKhQR2BNkkhN7KeRoWPStRZPIiKJRSdS+Mx09CE9g5rtH4pZ1WjAQE0kU0rT6t0jSYWrRUrLWYtFyKUEh7oIhARFYEBIiKkCBzol3VfVQihUCHhcBUBhUIB4YSo9k+VIlCFiQBUCAWgEGIkSCFERCAgoRSniMNEXOCEgHAXg7lASMBUnIArAAq0XzFGV2dIqBpWKy1cAgMTrNVAgRLmHumWvfAUs8fviGzhzS8ECAlFi7DS7AYxMW3HXVF5KVU10jCna2MsxrlYrbxZWKh1EkqtR+K5gE0yS7NixGB1cFdYio5Jk6uFhtxV3XK82l1vuk12ZScmjMJAD6KmsSiiS7mUMXTc2QmXedIVqEpT9pVZv1qhfT6EiAsdEAEhmaRQKS4QOr0PPhCCKqSo0EVAEYr2lxPSRfsHJRyioA+XJ4jjcAOhOEQJkgIDVMSVpIurCug0sewqbpCQgnWhaCerZr1NY0PMap16J9JpNlI9q6eQc5lYei6YIt/aMAKMlxrJ8SJWi8qagBxrtbgmRVUyhhCMWXJJjazWTVXirnSNaCpjGy2zKYlpa2WtsSnauS8QVrHT3IxWy/VFGLtsNvtb3WxdUaFLbuyDOzQhNKGuurUiFo61RZwuitmKM+kySBUJrpZVHEoqROlgnzjAfm1zMI+S/VoXQFx6/yFAoUIg7A0DwMVcnKIUocKVMChEBKYQp6A/GYACJMRBDP7lEFVAHMykgqIEO5NsakGpcFHBRNO06CZZKhFTpyIJVyBCbsuURjmPHAUZeG+PISeuapgGm5q1ChHvyLqWRAizBbL0pNnFCykjwlpK9UHoYkwBbdU1G51ttM3EdBTWmjzes9Eh29wcVIt5mazyxSTvTX0xkmk0aSFZJIklDSznVb0zWZyRdQtY37eoauUyJddO6ID3sR3igiAAzeFZkEXcSQEE0aiADkkdhAgFLlTvIYDAFTChgQpxugD9syYFcAiO4yJcoICAfWJxKkkIe8eS/kxVEYLa3yEhKsnVXejGbE4rEyaNjFIIIhrpgbnMjWYvczfKuYRH1wARMNzDMAKMkoEs3KpSu6IzpyRpYu5GykKlJEBmwi2wkMI2tjUUbQrtqjpaxS6N8tSwzKlMNkHhpcTttJD6aFQ3ZdeOJU8xr7TREKixjaEL2qo1UXP58ur6rWb5wfqB9cVmWPnBbJeOMbVZqWRDCBYCCvVgNIHCQelhUO912oecIfAoIaQKob3VhIPB4L1LiUMh6jABlXAiq5PU4SIUcRERwAwkQSpAJY9LCoEPmMzJftkAMOEbCN9RuJdGnWQGuiUas7KJiYYukDYwbuIUu3eOKUw57mSUKR21DSxyjcZSZxFiUW06H3MepYiKkvDoUWKznCybsk3iSUmTuuzayooiyBaTtMuyqTWvDKtCUoHaBInjTst5GZpCG9Vc+rK4fiWvvv32+eKJYhrL07fmW7uyKWUXzaHpeO2qUhTJGKTHtyABF1VVJAVFFEC/ooVipLoQFIWCdIgo4DKkEIoDSrqQTqj4EOwAYEDRQqHw2FEgoEOlTzr9eUI9fpVNRQA6lUIaXNVhuYueC2Vgjkjmx0FcQMApLuYw3tMw4oFpTAkuBietkxwyhXFlmR4mOp1WS7QCImSolxpyi+XKw6zMyduCy3Geb+RR7PIEsqYo0KkwgZ1x5dyjrFjNsXk0CrqhbuIqOmqXzpfHp6+dX3Xju6NXMb/7WnWEUylvpOJOERZ9pgWyUJW5h1MyrFED1F2F0kcagoBLX5+Ii/cw4fg5DOGq/8LU/gmBsD4PSX9hwkUp9L467P1SB9xhfQqTHoBRCKXQKQoVVwIuOVMJOp3ZkAOTOU2zeQ5Co0DMwUTJYomhg6Z7e0xK1IxYGTZsrRy1C04Ox9PbEvenR37ENV8vq4CUi87X2zAKRafleo5HWD+Mu40fJE9AUDFLYZpGVmyw2r7DfC3qAcMyNssQlyG1IZZrftq0EDCwq7pV49osfubJm38aL/6Xo/dfwO76rs7EroyC6yQkKFVd1IcCkEMuoIEBaoS6iAtBumQ4VIYC9HV8IMcfA4efOLbKYM3+I+x9y8SJQCXNj9mNHo9TAcv03MNqlb6WElApKvA3cyQUJsCF2cXhGUygEJqJDOlEW8ROQivWAPC3MAzBg5xPB7l5JpVniws62W2OHpydi0Uzx6o56KQJuUq5SG2x8iKPikkh1dTGnjQstZzXgC8WDMsGXeehPRXkAjbK2+t+fdXuUOalrkppQ23elpO2UowZStoo2ajt5O4LG9Z9+ZE7r9iXFjffe2lc3rbQBRHGSI0UdRHXvrTvi3IBXCSBJM0ofXATccoQKAilaM8LOQiShEjvDb3LAK7HdA+dMBHSQVclYQ5XYV/mCITeew0pdKeoaM8aAKCAUMCFlEy0Kp12DG6Zii4iOwlkwByW4Ek00RqETrUTbe/hMQTuroA5rmSc2oxnJxvnL491p5t2GylkTo9m01U7GUlGbn3VNGNMq2Y8bbOwCJCiy8q8yhCX3NlcEZQbvjW6u7HaWS53s86L0BStY1XUbVetjuA5F9rJRrIL9SOxHP+9C/r8++8/M/ql2ZdvzvbftdUWBswlN0ASRBElAy14EqVAVAA6RJOQKj2ucunREQBSaT3kxXG+Jpxwd6JPu+wLf1WXbMIed/f1jvgxRhZFD8MEkL76hNDV7RhQCwWimsUMNEmKJHATz5Bs8MAmslMawQ5FB+0UNaRV7cSyahZt8j0Nc7uU/ZlefXay5/PvWT/57m/90M6dZ13yuF1f+U6Xsu4VRVu4sy5dClOttJhPtmPs4trhYdUI3FJdLOZ+l+WJeVvqKVtuxoO6nNepDt5JkrbLufG4WmZK9rJGrtO43bx08qEfn9bV4eW7V2bnrj271p67K6fa0sapjvSAHMULMpLWoyVxGaKL96GJIiAFKswKZZ/IhZAeAvdMmKpzCGt9mBBSxAGRvmSBAkIxJ4nM45wj4jo8KAGFJk4T4eCGAAi1pMoAeGgRWkHWVixlZZFTktSKKoOLtaJJ0QGdSlZxCIHO72mYxUiaE4bD8JFf/pmvzcZ84vCR7vzlq7fvfzzpAxg1hc4KumfvOI+0STJrjRPdtqYc+WHQmYUOLgkyM011GW3T2vWYitDF4IC7g2hRozicscm5QO5im+ZHHkzerVsXdmevvPZ939q7u+t7SarQTJqQDSlq1tdr8AErcVjGx3GIQyXix4/dIeCbipGBvX0dJkjPvxx/f6ELVSAKyX3l2z/4Prf0iJhQAJoVrxt7AFhQJ3vaLkNrag3tgqTC4VTPwh5dK2AUgcABiuT+hoD2HoYRkWLCPOGZ083HTz/wc7/+a/OrT1zoLjWbLx21K58jzia+DALzLlgXUIy6KC1lOimKscQzC00zpYZVyCnkXOpRJeN1thPJphmSXD2LCyEL8KhtO2vjomlmK+4drV89GUoi8L5TWz91W754sPNyWtwu0ungEGbXnA1ZBIKksD6by1BE9l/4OKf3kI19nj+u/CnAAM6gYBaCQw3fBy4D1enScwGgU77DnOhtqWT//NVfx9OqyL1lKVRz0aTsxJJ2nXUppCwOpyADSRUirgNC5OuL5s2J/48Yhjx9FSf/cKO7ebb8sP/FrY+856HR9eqp3esvTw9OLV4arx2dXeYtEW286TKX5VoT5DBX41MWp1nIEqg6KVtLq2K8rMaHJ9OpaZRgtoplU8R65A1kOSvbWWYbxibSdKk5xPbzp9b3tjiqOU4xx5N+4gPrvNweLIGGNHEoCJEsAkoYeBUS2kMuCFQcMNWekhns02cR4QDQhnyPnl3zvjg0QKEC+htAuUfPWVQ1907TFy6Z9AGTi6PnITjAOhMoqcxEyK6aVbIxFdkLh3HwD2OfrzhUS333YujWyFsbBo4zL59+YOfC/O7Fz1y+87b75i9f/Mbywp2NF9cOb6wFL4u8mXziWWuPoKy6Epr2MqaTxWQ9cdJWyUfB19qQqSeWYa0eMamUOYyWkYeRjXlNXaiIzqvUxi5pTZVVKLJuUJpqyZjXxpOijGuT2M4xXlWVWFnUPkIaiQeHZTenODKQwaHaEKGKIPf9N+XQwRI4RLP0QEkE6sfgyeS4lBSI0Ps6XcAeh4v3IU8lK0SZMbRmOPwRyf1ilyEqubqoEJphNW0llqSopeg00PqMZ5DewQfIP6ye417bG1H1j3gMsHn9/HT1YKXFt9Ptbx0uwu/7xS9fnCzXbreLIujIqoCiI9w7Q3Bno8u71c54nLklvrUadd3WEU92o7yUOnMdRiZqq9XcdGHeaG6NzUYTR9R+WZNoGjuayUb0RoNqLDainuSr1c59hWhDrVI5SbmU1oIc1389iQERKFxdRIYEb0LrSReoIPcUfud0xQASKABNvOgfPKnHnuRQZxZm6YtNOAQ+9MWGTNJ3CdQFIp4xcHDKnmzLKhmSaJ1rpmU3cTMKMlWgVBelaL9GMFCrfbTEHzvebBjZlNG4atpc38fVIgN3zixiLAqjzEsWpZWqknUVvYkAbTmLe7dHR6FDWvpqI5clT0/l7AmjAN6eiV2YzFHV0EVo2pA6a9O0xomkI7hbiwBjFs8dY92EpivKENLYb6ztXJnceWRvutjyKycPcsmRF9FT2xVU82A9g88A9iQYvGdmRNRloCHt9ZxiDgGgvVEpQhPGY85FBmoMcJAKqg8wq++faRbPAzum6KvHvk06BKOhPpLj5aIZSAgJ3oWui00nTicVMKgcE3noGbcekfd21Xt7zKhIKntjZYyLZaNdF9VzKxZpZRq7qYQEZBGY5WyrWpd10jur3M5W3dgnGkq3qZVhEn2NG7Gz6ZFMGgnLom3buhnVvknmLgWpXSklCiIlN5c2cZWynJzNvnd+4+TO4y/cX++V7fbdO2scN1hvumlY7sXCTQTOQikQJ/s2mTv6ZklfYQCQ4cH1JJfoUJAAgPbspoCi4FA+OowU0NE3qAcgTpKE9f1rAKB4n7ugGceE10C9ZVPR7Ew0z0JlV3RN0XWWCUdIEhMlyTEOUUBEXQjv/+d7kZgClJNGdUnNwXUDoSsbsZWTk1xU7gwrRA/SptxI4TnWuTygzY+Udc7rO4V6DCkGTotcbWSPKnVemHcubYxaZnPH5shrb5hTZsqljIOilYom67u+vXO41mxdWT/x+Ye2w+Spx79+eTo/5KhzvRCaay3aWGYNCC5FJwJPRlIyhW7ZKaHHaABJcUpwiIvkod4BQVNKz4T2OUYGqoZwUJUiTnrfixweC+l0OHpQQDlOXsbjzC8CgQpFxEVc4QoXayW2MBejBIo5AgejDsmNg4mgTriHe8BlAMU4Cxq4RIrGjtpQc1CUGSMsg7QWXDUn1tSctGtiIyF7lq41Nr2MIkjQIFZG0bLtio6le5HMJQAx5qpqx6M21QbvUoEYqwAi1mmScmxX2c/Vk7290Wf+zO7vPc+9r8iZ9tz+7vQdb7s83aIvK8pYDLpep1ByZUyqsUGAWhIUWd4AN9rHFqUSqa8kIdSeGcCAsyhwAWUg80VgIn3l0+f6TDjgrn1jGQOiAoYcAbhQxekDOnBtIZ1op0WD2JoyiLpazw30JezQfXtddUNxB4/r1z/uMYLRiUTU7jAoDGo1JUcLI+aK2UT7eB1k6eIibbY5rAYglNCa5FI0hdgWGplaGFMFFKIKScECNXtIXsXUTltAaFpoUOiqySlhFGOzsvXT5Tceu/Nfv9De/B+6U2nrqe3Diz9+6v69OLpalBOp48jqUBxxMYnaqYY2m7rDxAWdSnCoQ/u13MNqDnCJfe6G9rGHkvu0Qs19qjGYo+co+1xNpwNZtPeLIf0bhUr3Y/5BByHAMU1HBwlzjUktCRKVVFFSXMVF+6apC4+RuIOdsQv3yDEA4mbOYRUocM2axVoKFQwegif28D5Q+u6jJTJJzuISGwtu9OHLihGWU+gkGhGkC5aCtFFSlpzgypgR6eZRzY6qdDfebur903uHD60233lQLjcO/+a18+XaJz/y6F+99uL62mufwPpT3zz1zY3t8cMrzE7praZ45E67cSpX9JayiGAOsWtHEQRdIRTxHoJRQEP/dEX7nG+gC5xivcqlVxKQ6hS6QExI0FVAVbiTwwV8MLccF0lCOmDQ/j92kUQFKaJ8k2qACtGhj3qcBcG+2ZaNbeFtce9QhlVwCwGSxLvSk3m/gEIyhWR3Oj1lN6boHnKklK7eyHgVQl1IF1uirTSNpDNP2dW1RLQUABMKjDBPTE3sCpPSY0ihKkMuw/Uj/4PHpf7EuUc5/mv/2uX9/bb8yXf8g82FHdjopZvln3j8k6c2Pv0PyivfftWvPM3DJb+ei0+8vfro6WpnUU/GSRAlaybF0AHZ1Dt4zwz0bUtCe1xLHNMn7GsWGYpEp/Wtsr7EVMkQgXiv5KD1BA8BuMN4rGgje0ZClIQrs3rWDrGjtaoMfVQUVRmaQSrogx+oyOZ16fNxPlq7RygD4E637GrJUl00XuQoYpAwhFbC6chZcpLkThOpFB5kHDHKDGByZjJ1njNSq1EiNVBNVDwjKV2ZxaVVSzHkClFjGatTvnui/v1TD737Wn31/9h+rnlh9Pha+fDN+XJr44cvPPmZ+pd+48Zk/eiVOzvdy7VujqaPnQnXZ/uv5q37OuwleyDHB226czSfc5a3GABh8M6YXUysR2faU/ZwpQgdKpKPi24HxAhXySBMawoFGkVy3wrq6QdBj9OoQh8UAj1NJr2gA+KGpJ41pSg5ihuJDKj22eKN3imEwizelD5fy7fuC3dHAVjew2NihpHO1HFJhk4io6IAIpW9ZMf7TNURrppi0RKtFl0MOSoVkoX0TCYVAozZFCYIyOqZOWnWgJg0Ugw005ir9tS8vjRb34vlX17+lTNP52yPfOhCmhwu1n3Zba//ufd9+TM3NuRgdoonPn5f/uDDo8vLnV+9Gdrx7qcO/dpdF3nsk2fOfNC+pYH1SYpGb80pmr0MEhKpmUEzJHeOIOzVQwpVgso+9kDdnVEa0yazIMx6OM0IjzCRviYMQlGHkg6gB+lOBBEoKZpNu6AphlQix5Qx9FBFXk//EAqysI1+MM23HgivPnL2bqyAF9/KMAIpGAyWFB1S8pCieEQuHDFZhyAIzIocCdVAi94VEPQuJcdqkUAYhR5cxB2B0OzGLKkNbVO1YjkGCcwmHg2Z9aw8LG6mh6/e/tk/tz5/Wu90xU4ssbYJRWjS0Y0J3vnwanwwfg+1RC7D9EzAc+HGF69JFe7/6LSs+fJv39gpHv/A9u5Tk/sP63Gcz1lItkITmE1EAJU2oW/XKxGJAl6oWpZejekU99g2kbaIawxZs3unYk4DRR0i6LkyCEX7vn4PdRUQ9OS9IqtkCVmZC01RBmWu0cxVjnsuVG+j767lVx6dXjt/7vqL4epffumeoUwFEsxULEIzQkZIEgSQnJGgFPU2dl3RBVElLaJsKC6FixyLfyGkJTFq0r7t7kYNdKTGulYdBqMwCYVeeBdW8/nyvlerz4v+9XH9/Kvt2R/cKr4/7V+P2Yx0t4waR6tJEdrkygY45C//6Pf+3NWnV//2Yydn18/vHH18rfgff/vK7g8/OjnRHh1w42o+PDfKW02RV003FkPQZF1OXgrJdQ8VUxm06LWZ1FXDtgBkFA94fwGrbKfTw4QUnSbaa4ukVwj2wU/BXh/o7AkwOEUyQuvWUlsUKy1SsCxOqEJFe+Fun/Zb485G+ub71l878+Brf29n77duvknP/8dDGYTiEsSIIBIgwajiRrae3TIK70Ln5kIDaOBIg4oZLWWhZnXxLG12NTOWkjVDGJMpupBXoW1DF2BlCmw0u+ZFAE2CnTudzi7mh3/3sfqlGyfni7HuHZzbxChKkKDZR2ICRkVgOJi/+zfjr9ja6s//6KUzL164dTQKdT6d3/Pwxjd/5ev42hob2zobb558Yno7TDabxFHKlep8FOczxE7HgjY3gk69CDAp8kHV1p1ivjgd1prZbxzIKy/B8PD7q5vTD+VNeuiEua9iBFSBmMAcftxd6KkfUhM1Jcu57HKVWCQJWVuHmaiI9PQg2KnfPqtf+Z4Hr+e1l37h+e5ud+kXP15s+PO/8Om3MgyRVnQwmmoO1gW6UgWqEMmaU2wlei4y1dVFk4RkJREs9JAIdOPQ/5AuiBuBpNmZsrNGu5LsGUXWsiu6jmVXIsesXli1nsofOZSjeX4KqUNxkMccB1ovoMgQowkLkzI/knf/1Olz//2azu6GW7ftQurKVV7U4fxhPfrkqdn+3s507fLLB/6VpxZrxf3vLvcQOkU5nm83S18fHXkVZq3MxkzSaVlI2uywKHLq7vDK4Wzn7mh/5/6LOle59ZnDtT+7dxvnTDKQCYgP/WtBtgEHAOjrE2gvz5Fk2pXeFOxKoYKGQd851FLwncKffPsHvvG5u4f/+KU4Xrv4n37ogZ88f/SlF9/sIt/hMVlSRgYQVUsokjmMKjmwRWpzJ/REV0GEIZvmFBxRjQEqFLgpAtycgQxkQuchZ2s9stXUOqNr1ZZFF5E9qmpIS10VjN0hH9q58NJF3X118Y73n3zt0SpPC2ShH9PhKlAl0ke2V7/VvPLNZ56Nb/++spt1Ao68KNN8zdfK+kRQNdv80Il5Z+exeOHvXK8PbgEyM1xBkYvrSYJ3WbuQY6brSiR5qnNdaX7Hmp4+mp775Ilvvlt9snn9L12WvTkfzXqY0In2ss2+dsnoq3cODL6I9vJ1VzJ6V4RunFPpUBd1Ufb1FalMIV89e+7p3zw6+tKVs//Cg5d+/iNrl6Ty19r62j0Nw3GHSYIlg4wa9ZrWOekeUpbcSiJyFkZK9AKAak88EUFUxeFqUOXAvkvyUEMdSITACUfsQmxDL1FVatvyoEvlmqy9t9xf3PlHv2fx/vGth6ZLKylKU+kVdkR2QZZpwSd/e/+rX1hmyH3p2e2HGHY9tyhKF5FpzjtppJbaalxFPJgWWz9Q7uTibZO9L1y5ePjlZdypTBBCHc7tx3Gi6o3uxOm4unPhofdNDz443gvz9mtv86Pq5N6Vgq0UVakhB9belF4ct+BAc8BB7e0x8D9KF6dkxpxHrY8aiVnoiK4UZHMWzsD5BN88u7b4R7cmP/1D7/jFjbXJTrm4a8vZwezgHoYRScx9PDJBEeFjGrN5J+5ASkhdyGoYeWEijIwigCgFJgp6JhIhShGoZMsZWaRvOIlCYtaRx+BGwJ3Wxbr1O5P54n3z849c/Nxv+N9/8flH/+x5fDD7HpgcZt5rjjOUmjssbzVf/VS3ufXQ3v5lmy/PWBPHlCBdg0LYqi6rQkoFfSPN76xEL/kpbdYbfaTcxXo5uhrT0Yn9jZU/Io/fv2dRP5W3zje+ubZrr+XdytP99cH61na7OPn1/S/O6mZ7FK+mokt1UfYUGXtGR70nYlwG9TJd1F1btwajlU8XHLVmkARQ2QV62WlEEnztTPX137+tZbj4b1Tx6Lnx1Ruhzp7dd9q3NgyJRLbepVSK9houOmAqOSY3d3WHxy7YokgZMVfTtlzkOmnKRVpKEpNNn4RUoLXOleZdIRaRIySgN6FR1EPfcSon0p5adLacf6X67It3/vcnk5+azn0jH4iZEyH3Oi0VNZKuWapmscwMcQcQm2/GvWulpyCeoiTIElESc4dSWnOXkIvWy+RHKptVPXvA/VzdhP0mjYxymK2Ltjma7a2PtjiLZ/OSMqtiYXm8k89r/WXBVn24sxxli646CDHkWBPCXigIQGj9bIFbl61jmVKFHAMVgr7asSxUZt6p8lO/23Tz9Qd+/u33z75x9uptWTUUtLFo23txZcIWbWO+lGaUipiCZms792CH5aK21KoHj+WqkP1RvSpL3xwhrsLdxdreDKv9qrlPx5urUWlBJXQ1ak9t5yqkuioqhjXe5qIAACAASURBVLItulayU4rsZeKokVE6t5pcuvauX3seLze/v/Zzb2seqbikx16wIEOTRURLxj0/195tKkozF2Xx0KizKh61AFlJMssiQRMd4u705BbNQ/RGNYkEy7XFPPK1dq5Ln+ewV1RhlOsiRBGLqKmrIgbJy7PjLx41fM+5893eAbeThWxRLXEQcVK97wXBe8V6LyfPbkgqHkMqPEW4mLu4A+xEsxxm/Nof8oZvPPwfP7GNb55+4WaVc6dSl7Yao8vfAZffzDVLt9WMtuVoY9VMWow5GZfn1k7lsjvypumyLaxYhrXFWlhWerCRDifaVYuQbk9mN8arHU1jKYtNxJM+2SptklF2WG+WW7N8qpE1H03s5InRwenV4sysO9mEdc+aJfFMtf74e85ePFsJ5aLcXePCEzwpspACVyRxtVCS89lrnz3693/iwQ9unYTgobcfjNvGg3ihQkGiOwAx9SokCcpSUEpn2onW0XJpWlHAIuSySquyh5BSebPKloOwUJj4KN7aOHulxcaZrZsYW6y9MI9hkAj2XWyjGhgIGyTNcMKzZhdnoEelmKfgqXCMsk4zx/zcy7zybS9+/AOnJ89funtztN/lBbvMmtZSO79HHUNQa61isZ+XceXrHguMxmF6tFzUjdYZI9OTxXiCcZ3DJK4BtpzsH57Ye3mriStsdsXtal6dxEM4VTRrq6PYWTp4sE3b7Ym6stpiFxcP17MzMUd7240wuhp5JEdSbyy3Xy1u/HcHzzwxWfuFfP4v1SuVkffdJ6gLHMpsLrl87Sp2cXbiBxe78e2w/uvz6XbXnBQRoTgFzqFnopL7jgsFHtGZZhUNwqAm0EwpJJsJoOIFs4tmEQe6pHMZH86qvDCf1wtM8zR76LlHFfM+6PesEwRKdwrcJYl1ObRuDSyZZYVxRW8M05KVcNmUt1uRSu57z+zS5RuTeZcVddRliKtgjVjGvUIZwaNidJLny82XsH86rxec1t5UXp3oNr9wMN8QfWT9XBWiXeR0IvsnD6+cvrmYd4f7cXzA+9bk8onFfpkeHW9PuFVPrl997+pbl8bv/8JEn5zksdXnly9etKuPXnxHWLtw2fz64uXi1s65RfH2+e8y3f3V2Xse2vjamddWo3N956gfHcpQUXVRHnUnbs/3uPy1r7769IvhsX/5wWub6cx0WcUcMvvpvWEm0odJtQwkMRW6CsSIYZ5SiJbBVQJcnMhCpYoL2YUw0vbMy7t7h93mR4jYzYsN1UznIDEcugQQgcugAVDJKjBJEZ0hK93ATHSRLFm4Flmv301XX/X7v//SR669sLXqErCsbDWyehTaIrYWk95LIiu4Mu82v35Gz7U3txaPXIhj2fTlcn4rbW/f3777hcXXfHZ39MqF27MH9sf5bZ8bH4TrunF5e/W+ZjZJN769Wr0qN3fSl/SZ79m4+L5/0f7Px7YvXV49+I2Ts+Xyxm77XNt+aTFN9f0/9vsb1ReKdvriri1vx27/gdXOZ81bnDu/duXSYTjAiqoJCZIhakIzmMS99s5Lze5+uPXFtPZDZ1YfD6Uv0tw0ZWmI1Cu/HWJ63MfsjZBFM+BE/0NUhO6DClwU7KUWIRMZ2vhcRye2DygiY2FgHilBtFkcdMogHRAbZvcJQOECqiaNSSVLkUW7NnoXubYyTZqBl244R+G9D3fbh7sA6koXhdYh1Ba7EJIFqr21YRxo/pWNrz0znvx28bXbMf6U62bmt/Xpjy7+s//1mfa5/OEP8W/tP3n3WRdDxl7Xd3oc8ikh4MnhEkwu/Fj15z/z5Z84f77+/IXH/uGF9feOR6evfr29+jtnqnd99vSzv3DjuW5TP7R3erI82uPRrfV2b/aFz+5lbO1eGR89V3cj85EQPbHUZ/5QFKm7e3SYrPjex+vPfd2np9gsy9gaKF2PYvter1JEh2Z6rzHrpTE6CCopyr53Dx5LmJkwTEapCn25DJu3HDXiHhZnSo2SOyhdjiWBCvTSQx061ISQISszNQuTeFbzFDzUGloBMUt8+jWPj108G64Wc8wKOSzCDLFBbBiclmTQ8rylYfxv/e1drWd7+/Vi2j7zO/7X5HouWX7L3v2R+/NHi1de2D/x0cnZ06ORyKP/3NbofG6YqfbY/tpT3zzc+MHtDVEgdyP58ev3Pfmnv/JD2+uPfvy+RXEo5+PGQbFx235guvlT/9bm1fPPPWuvfPjFE1s39eYr0y+19700v6VlevZMLC9vpIsBVJiIQQOTmEcbWRN3drgWTtf5FQAvXcsfPinsCk2B3ithBh4KfRdZB7GjC0UpcJFjNe3rG4AM408OcUoEW5NC87lVe/2rNe67b++hs22hSG4dPPcC2EEpTVXpdWr9ZRyWs3SuSSRjlFhBg+jIMAoIWa7u885M3n12fqLpuAyzUg9iufTQaZFCgBnFXO7hMSLy4594+KUH7N3vuZg2Fvu/e3njex+wM5MzoWokH4mPRMqMxnQCW4l3wnXA3BPDYx/cWoBRg0HBdGFjnP6r9/7tf/fLj3xs+vb37y3OpLPrb/uFv3HiC3939Pxk//CJ2ekHcbtZrjfBH1x+/f4HfP3+9jc+u5uPts5GV/MWFIVBq8zCSEt32vSpnUfObj/zzEuAn/zR05qTtG5GmlKdg4CFb2i9ZZiG8Z7WIZD7DuLrkZuvTzlLBxFvY1F6MnSH8xTPnJy1p0M9i23tuZefS8Yg6NTj7Tb6PkJP9asmgRt8TB91gsYmJlXSusXf+Oy8uu/E4yXWduUQejgKR6FsisJjYDAEZTC3cA/DBN34mQvvOWlRcVpOnPzJ6U02RSxaKZJ6CReiVYiigXhPbYKqbKEJDqAFS0FJC5EP/8C5d/3kg3/xb37lYx8afeAHZvvz7uITD37jnYeHy3Ty8knb951z8xMnubW1fPzVva9/7aBmPvs91cG4gIs02oteLSeJQSdYfe1wa2YnzlXN0Z1Qxq2PFlt3d8u9HGpnEtjxlm4yjBq/rk0W7cWUx5qYfj6mj2GDpKsXz5AmsvQpunRz1a3yxmO2Oy5t/9Bq5EoR+77+MJIBKhN0UFKS/VyBugaPngv1UtkmkUVBwVevttnC2feePemvRMq8ktmkWIzGXlgOQaNKUAnGcC+PUTRl2Cwr0ltwFWzEyoFaUt9dzkKT13VuQ2AHpB9fI6miiV5CgoYwwSf+k8e2fmTri//ec2v/xRNXt7Z/afriu9/RvjNtPvsqu6k+XEvTNizan3777Zc/d5Qemr7r3OzJu1Mso2S6BUw1bCX/2kvbP3nuziu3Hi6KjY2CAofMv+QXLjWxSCNHWzN34mGY7D++t0GROQwAwHspl7r3WMq17x8hqyloyT3DqbOurLplnoTqUQs3Gl0YoooRAuYeUwh0mAU43kOj3+SBSsacy86t0Zi1bqyJnUS+tOhM8cG1eiu2zRruTIv5WlHHMkugxRBVK7WoKIu3NszrL0y0Qe7oJmKg92NAIgQTXIbNVORY/sYM9g3Wfm+dgdjTENbX/sQPTib/ZvP5//zFT/7Ywxv725944uHtiP/pHYuP7813ceTrnUwZu1wqzhjGn0nbgbdj9KnoBG2K3grHVfOVve7Fu/Ihu/MBw+/BJlqv5O5heaFaBnGaeAKT9tx7nwB6mdUwQ9Hfej9g3ovFRCiDNjBDFB6VjIJ1OxpPn/wiygfGR9+ymFecsIvmqhQojscLhg5tz3YLhBIId6VHzZOURrMgQpRZJ1kFCQzIp9tXfYt7U+yujZZarcLIEYkQIVGVJvleoQwAyQw6kAaXgIg6MIzOYRgu6RdI/0a/9YAM2pxBqtOfNgItyLt+9m3Xn138wdX9G9fv/OJvPTPd9PDoRnv59Atx7er0+kLSic1FNrn+raP6Q+OHdtJOa75lCJSlzq+t+6nYffnW/Wcn7/1Xzz/zD3cBTH/+naPHcrHw8czLTJKdKgiXvl1CEshDcu83VFKQVDkGev19970UZ4/IsQjxUCelxKMnFyf++ZPx7DwtzKEMRtW+cnGBeN/4H8T6x1KpZMmtzaM6radURQaVuDRpQyrzqk0sx/XIZsXsKFhN62KZiiLbyDX09xAgWe7tMVmEkAwCajLs9yBv7BbVNz+pA/LBsSTRh6cgIkQWBKhBBVnga1v6p/76e7766asv/gdP17Uf3gRvHv56X0YY/p33Xfr1Z65f22lF8ep1//iCX3jhme5PXpC1bWqObMaxPbm3/8o3D3dunJ9HLy+ML/3g9rZcO/PaYryXLfXSSVKRVfplfRzUqO5K5KHcOKaihs0UBi6SREpKE7fQhLjfjLf/5NbBV4/OndpuRrkNwRWWKIkElN5rognK8VhZL8AMKYUuVzlNym6sKJdFvSwPV/baavXcbb/0sUfKtZeaRnbLYiXlwsatVkkrhSYMw7sJ9zYM4AQdb+DAY0fp190wx6GvTz8dD7tx+FUoPftGpRMIsGRw4cMfO7X8bz9w/un8r4dH/5vLn3rJwroWZ+47/eH3jcPV6f/8pYOPP3Dqlb9/+Xe8uf+91bNfuVzqht6X/PkXTm+2P/uDk99cnf70X/32arU6/8Nvaz5/48L2q1urOiQ6RDoC6tZrIfrVwn5nDDuuZ+QNJz9e7z4ssUEhXzAXoUM83R1d/vTBO9919lZXtGuFG8T7YRw9nhVwcRUfqOahjqUrs1quijRtsNHEnOXozGJ3TX/r88qtcvxOk0WzjLZno1ZiRuGIRJHcPGtIgoTO7xHKenmVD5GUrxtlqNWOX8sb77j0+yIMZ4sATg6BXsTBjgQsWNiYxPd+b/XQB6Le2Dz31JZOy+7arSdGs1ko3/t9p27h7mP/+NV/6ZOn9337Sblx/cXZ7G6SseanF8X7Jh9bTT7wyx/+pT+8W79488I77KuzQ73bjJxw1D33LshpEPeDw5x5P5Lfy2J7cw3NRvSNSHEFYUnNo1lgkwut83xp3vqrdkI2ppxEm9Vojcc8v0JINyfd4aImrsMgh6jToMgVPbrf3UpHD3RL0WbO7cfPvf3wqgY5WLNViB1Cy5hSzFpA1NUo6vTcxLc2DIAO1onJm2abVIayZwgOfbxGv1/I6wMdbxoCxhA1ZNi5axCFBpFRiDuB/9v+1f/lL1xblqxm7ZPNwej81R/52IObKdnaUp5Z/w8//Yerh9e6d96HixtF55NLPLg7/ZXiTmyrp6aPTJ5Yq9aee2C1y0wsKQ4qaccNEkW/ZxUdx9RZP6cxxFgANIGBode5aA7mpp3EHJBjLCxPvrwjo7L9nlO2Vckya5eZe+EzxfuwIf3WdRQdOJ8emzolwxKiYnUqXb6gebtoX/NmntY9T6d7R4YdKxdS1jZyiUCQzpwh0zyLJ3b1PeAygI4pIYfjzQT7lY9BcSsKDRAFMtww8FEOdsdW6atiHM97Eq/HDgASRDKpl/I7fvrS80/d+TN/4YO3Jnjh8vzv/JXL4e7pn5g8sRNme5a+7z/64DNt6nakvRt44cO7O5Pf230+/2o753I+l2I5PvFAsV6G1GZzySq0YU6pV08Nqjwf7q8fWu7HW1wsCYbZGIhTEzWrpRAQTEc809XttSVsJHmke622Ce5gImwQZgGguwyRop9Dgos4rGPoqEt1C1fv8/37q3ccrV54milHPLZVyp2jXBzYqI5VW/xf7X1rsGXXUV53r7X23ud936+ZOw/NjOYhIcnS6DG2sbAwlrGxTdkYFxgChAJCRcaB4FRBhVCBkBcu4lRISAJOMJUQIDjEscHGlm0kWw8kjUevmZFGmvfMvXPf95733nut7vxYa59772hGv5J/3jV168w5556z7+rVq7u/7v66BEoLohMCR9Inl5GkYHs398pyyZkj70hK4DQYSCX8VEUrp4eaAkQRgjfwvSmDXm8IdFFBgSJS9dH63b9yqPXP+9/4wtrDv3ZXZ8/a/kry3z6lnnvn6NDj12QBpu4dJi1Lc8uXv97LXx4esfrI63GaxYv7ckhoqTQebaxlqtMmlyCzQqdBDKEQhUNMUEQEQZCJoOgxRgRBcIDgLRB5JIZEUBAd6sRlYxvNlxY5unNUgTPLORsiEociiiUwC3ibAgJIIc0saAUzoVyinImkU7ILimZezGauRI++kPJEfW/cq27gfM10VZLr2CoDiiTgdOAAFaPLCDK6qWB8FQeAwmKJfRW7b9TyCRJ/cGGQii9EGGgMQYFHFYHe1ksQUCkd1coP/MN7/uKDX3vpEVgYaT35ldUIde2O2tVFds86+vzlt/7U7GrJnFlfPnlVwZfPiU1wpu9iphJYoWU7NdVpNbWgzlmBVZBHKMpX8gdKnsGeQPYdrQAoDCSEyABKWKMgWlYuV5aV5JJwN87z9a6S+jS0tNPO48gkwEieiMtbUh8eCYigQrCEDJoR2WAW5w76qnFa7blWl41oY3VBGjy5kNkSbVTibpTkFDNFjhSAN4qIIuIbrPKbC2awmINyafFZkfA46AQHpQmmKBBIht/HQcSD22XjW+cIsERiRuF9nzn6zL+9fOrPrx375OHhO3V510b5cnoJZGq1eSBtt0vJ1D1TWjcfz6e/uVgZVtdoiJwC3WcnZkFGK3lWZgYlzoATFEWiED1HjO8HI19ohBC6V0LXhPMlPAyskEUsKOfIhwWtvt7oukaplfIEswKFZMgTxAkgoThAD/oEL4L8hmXfW6YjN9Z0k4txbXV4tDm6vJ64bhsinfX14qRaHynlSezAMCtGEgrZPe/gWweyLR1zncYUwKsUQUvR4l60cBZsBFycXcXSBy+ucKm3Qdjb3TlGkZyUHBg69pulH/u5t4wlyWd/+4vL+/LS7ipF+HwlK5ejUaVHlDl6d3T6Un/lK7KWjXBmiHJgYYKOSXouYpf6Tj/WKEzgKBCHERIyF118Rd0XABCTZwQQB8SALIqz0EtsYjAL/XaXKofq4DLIFSA5VFKwPARgNCBRCBDoUAEYGcBJZN2khj0jNJ4nWSua15lSDFVuHpJrE8NryXCKFYuRQ4NAIamPQACWRFER1N9EMExilWABzYHv2iRSHh1k32kKwICF4gXoDLf/HIhkEBJ5ZfPPOMCSgmREt4fcX//py1//nytAcN8PahAAqM7nrqxAU1yPo7vvXfv6hZ67VMUcSQGKoEAO2rIWR+zQsSeEQ29XfI+DEAKg7wUXCF3BguKEwIGv82YOqiARsVFR6owIi85aNULnEnJKG7ZSEAhJ+NPRMwCz/yIBAkZhYkkcxzGXExgvY3eoZc+vcbdHOt6oRd1SzEKMyEoJIRORr1IXYAHN4kBQyVbJbBNMDBiLkAT6LQxwiwg7AEJEBnJILkBnoafgDbbEQ+8BJoCtWDuSA3HAxJIARKSs5DSqazvKe9+349xfXgCLyyeuTbSSdV0vKYnZ7RmH2962csaKW9CUOZUJ5QhO922JoRVauBiL+N4TJCELERXzQBAZfD8eAgA6FAuOSTw6EQEjQY+bHJ0sD6lqWj/cb80hVxJhhA0xViwha2TjrT+hiCdk8MAlMnuuLmOFEbpj2ca9ur175nN/iud+Z+HwHZCm1OYyU0i6BHoMRRrAStAAefOu5YhiQxED++BfZPO8Qhh0d5BDYABVvDQ40AY6BCAItNXY+MeDDmyF4l0MJhh/69jUe8dal1fffrT0cH7HzEd2/0l+frHTHIrTSaembXZgqD1X0+lSmRxhjmBRWHddYtmIdg6RAVmADTISMbPnZOYQ/IWyDt+K4UktEAxLapQzBBYM51GHs2a0fqY3BOP8CthDVVUzlcVFvGQcKozZRwrBNUfP1gAMwiLIjCwKOBZecbAA8uRocqCiFr46V6rqA4eyZxsNCwjMAoRKAShEckCIqBCsCChQLHwzZgwA0KCAVKCIKGbQ4Ba1YF+5Ao43D6gC3xjgAW84x7bI3levIHmbBxgpM13lBz+x/ws/9+0OtQ98YHV675F3lsa+vHShKf0jUhlWbIh7M4tfmWu4fpVBIQqji9mJxRwUI3DIlOlCi5FpYPD8phIAQQQkZEQkiV3exhKzdmRKLh1bb9K3y2fOpuWyrH7tCmZTd/z02M5Xlp7r1JZHRiEC1grQBQSEXdiyAsaKskyZRLkwykqEL0xMXH28+sOXXmheaptbJ+a+K+IIIRMGBURCBL61hkOqzdtdAF+lcxPBuGIpZXOdC5qIAXd3EbQMmHSgwNeL+HqrJIqlCe8LzF4I4P1FBKqrGGcbP/y7R5/46eN/1lm5Hy7v7OysPH5Kn56Px+PGTCUaStOsuVC9eLx9xBrDhJV+fyrtkhGrffc9ikMA8rSmDISh6wH8/0KtPQAQsUZkMBbK6Nom6pQq1VreevAdWfWCO3OhuXEZNgCvXjjzv/Rtbx/pHpmwjRibmQAROOZAT+IDh1CDwaxzrrZzQrWcxEOdDI8v/P6XWvEHb5u4bfjialtGEUmADJD2ZASE5CAAJljkePBmzBgwAL0gODE3MB/BwZIiZNiqGz6uKz4KEYEQkIEH5x5sRj8+/EEHHCNVVWL2mvq7xj776XNPrZ7ff+nKfSfq50t45uC1+xZcBt0E7fe5+fVk6hXaGfWx0uvX4w5M9mVUOCPpKUiVWETrCaoAAEWQC1Jzn68HQHFIuQKHNqKaZGmOrlQbPQhrd901fteBn/no0MJar/fK4nMn+i9/9dpfPrlU/ok7188A1UAsQ9fnLxkQBAnB+c5mQFDKJTqtsN04M7zzm7WNa3PpTO19DWpfPHXx1sMRuwgzR4ZReY0RIs9BxwBqk3X15oLZVJiAGWOxlAU9XrAjWERyMHATCqkFiFNEBApWHQAHg2qf4LhRsQ8YUAFqDQ/+o6Nmz8Spz576Vp9OrqctU26YhpmrZalrr9d4qj9x9/rJqUOJ7s9mnZG6zsYapMm2s7Tl8g0n67ltInQE+0r6AjmA9f/Q37AgaCFxkDvtLNBQhnuA//LVKytDs29t3lq+snt4Td++c+k9u28/2bpw6Rk53Tp0/OVrcIc0iJDRCHqMxi8kI4AQMBOR5rLKd2Yw5tL5nj6x3t03M1p2Z47vPUAxiMVUxw61gGfxVQOoSoVedOStlHY3EgxsSaxAKG4Iz3reLxnwRjEIeSAAMeTN0FPcB2YOz94ycJclwPKDHRDCUo/OaURr7B0fqu26/+DlvPrtf3V69YvzJ0YmalN6x8iOM6fWX17rbWTN2V+pPHQ43o2HQFot14tcBlmeZlne78ct229ltpWnGywrGW2w2hBqC/Q1pJ6rh0CIPIdES6/B6Lkr5e61lQ9+evbh7PHc2Od2j6wlye60tevslY1La/vv3nW+n8gYQV+YAZQAgmfDKgI6RAACLqd2rMfDVuexfTZbyqbH7vsuWpisLNfqpAAUMcai0KFCLIi5i7MfRRwX+/dmghF/KPuDAFC2k84Jggwsqt81Ae4oVjrMPwAAkID/g/9EKhBoLPILtCky8jCxIayXK26v2ZH2+j84+vQX5vrz6//9vsnu8YUlWJ++b2Q8Ug8Nd3dVhq0yKfTYdRPXE9cvce5slozmWZ7ZNMt6abeZSTuDZqqaeb6WunXEFnBLy2pCOUbiFFNpEeFU3y0uPP9bzyx/eN/bHxxdgNLQ4kLl9Wuf+dQFt3v/1XvGKMoEREMuqEhQpGg6BhECAnRKIWJdWrc2ma4MrWDr+eVs/70Nt3vhwvQoQA4SMWirjD8AJeTfA8TqQHxvOcGbCgZBIygE8URTA0MPBSzhFQYHzwVOFB5Ay1g4xAX7/TYzJYPvKYwZexYRQAUoKBpN1ahIqeh91f7P91/+4uKDf+9IXWUTeRTPUpnsCGGuUocRIMWohYxTsRbLkaPE5s4yW2ZbzXOX55D1dJr1O/281edmnq7a3sWevKqxpZNKlsY0Xp2+u7zr/EsLz5x88eSEuvNjVbfRfOqr7qyt4rEDnQhjWtNZDr4jyQYaB4/6iFIOkU0iIFPcvWWUjuv4uVd6bYG7Z68sDem2i0lYCHKOBDSiIBEB5uDBmFDO4W2xY3wTdxkJiFABMIBiEPZcK4AFnhocnS1ps2DSPYMXbwk5B1+yJRK67rEU+gfBhgICgEFCFdU5G/6Bsc6fXV393ZcP/4u7tSGDShCbgIysIQfACLTDBJVR4hiExCnDIlbYxYkTtsK5cda63OWZS/v9djc91EsPdfuvpPgym15vOF3LhuPRW3c2QMG5xSd/YwFFkgf3lD442+oqbDkLJWN7AMgqsGUyqADRMNko1sZlqNVI1L41hgMTxz98jar18VlatakQoBFnSJRiJEAhIAekvKIgWEQFKL6p83qFuR6SCTTEEsIRRFS8BTErVrYoaSxizzdUa1wvnvAYB9RHIcjxrp0nIBcEEo93UGxKs7dP7vqF3Sd//9L4O6dmv39XzWAZwAKTMIf8FBFq79dQ0HIGYVDM4kSExGkRBha2wLY/1Muy1E533OG+e0tTncl6Z5r5XOI2yiA4M1RVtejE1fnZt5XoTpJT6/1WBH0UICWOMGcTMQmgL43JLcVCxuoIquVLR28/O9l94o9X2+t68t7JVv1qPmwgByYUpUUpJAUgfrBJCLEBdJGwQpai+/nGghEU5+khpYhNBjZpE1aBAKtv1YktNh4L76B4u2waKhGhkKHZ9Ck2FdZ7aUierX+6LG/72Ow3Xlr58ie++eG3vGfnzEgM0kIWVF6QBBy4lEJmT3Q4Pj3OJxrA+BklIAQQg7PiuJGriVTv6Y0/0FbX1he/tZQ/La12LY3cDln/9lVYs7X3TtDZ9tLpzninG+kVQMdGpR1VFQKFFkiILagYGDg1UIlqn7uWnV448cTG4Z94eP/SY6d7E5XRjCONqICUECKSeAYHAALQUmTyxJsBCQybW65NgEZH9I5HDsUV5cT7554+TQqIRZRf2+AEyObiFnsVCpfOuxFUIMpbcUzczC5uE3lh/fwvigEhxLKRyUPlbIUvfmlh991Dw40kRbAoAKIAlffrC0PGBT8bQsXrRAAAFU9JREFUARISIinQ/gGiEtRIUYKxUkmJkqqp69Lw+NjU6O7qPjX3ZDK5B9OLTy0vtnXv8Sut/7FWyyTbM5m4Nc4w3V3FIWuzEkAEioFYcR+FJEVc1/uOt+98dPl/vzKvDszcs+NcvxRfrddtbLqqzipylDg0iH6iGlpGBPYV6oPIgjyP6tIGP33xZoI5ElUM+7oj3NQFAVToiVd9oohChZAnKwJk8NGSeB48/0/hQBhFuRMMlGtr6OMFs+0KrVsqKo01Dn7frhN/fPaZ//zqgR/YKY2KRTIAgQcTxBU3yRDg8AEsUdDHC4HkYFFcyeXVVt5tbXRSQ2tr8trSyT+YP/GNJT0UPf/Xqxv12vs/efvCC3MrlF8+3V579Oxs1h2Z02vrzf3plaaZ6kVlIqdsqvNc91zUchNn+vefbi80157X6fu/p1ydWX91/3gWKUsmVRVRhjFGNBZIgUdXwe8qbwIYfVISGUkWtgnmusjfiQTmEQbwmSD0fQuDz/LsGSFdFGCEzVxZoUcDI7/987F4i/cS/dm1eboWaIKI30ieakrLe37n8Cu/99rf/N65d/zG0WGygJAViaPBWRk6vLfMqxKQHFABjfaz5ddW/+qPT3fOrvcX7dWrfVba5Cl38tkd6sC79n/lqaU7vtv8yPsnd84KfM/9F9dxZqn96m+/fvLJlZjWua5PpUIfXMO9I8C5klSBi2yv3syPNF2i8bn86tRdo8nI0msjjU5ikIDBCCoHhokAMTCiIahiBpqv0CTvLQsQh8W5sWAcOOdlA37pZGA/cPsqDyq4BvseNxd94LGJgG8pGRxTIZ8osA3uHHzIwHKxLzECMSBMPLJzePRn3vLYI0/lv9b90CfvMMM1B+yBQBQMhXABDvRVCcHE5SAosn7N/uGHHt3ANIrh+3eOrv54PPSeWQUmjZMp1Zqbmv2hHs2WeZj6LU0HNEY9N96lD/3Lfb/4C5fr1fi9/+zAn/zUUyZq9sfjqJPFS122RkE+XVmb2tF8cZjX2tHtbx+xycISVaTHjuLcJIAkoPxR63ydDYIStMWm9vE7Bqc2ZF5vIBgBsEAOiYs9iFj8WvFEsbVpIK1QkOkHHxQveN/Me9JS8ECCH31YOAUS7m2rVMLTEgLXgA4gKtA0Msvv/neHH/+lFx/73JWjP7Y3KpUEHIPTUiRbfS0fEgKTD6GEBHldsiXj5oaig+8e+8mPjlSrI48NlzkxpOMdhDU7tCGuXUozrTYgASRDOGpM3BhrTamf/fq9u3Q+e2Hl89Xk2p++NjyflPbEptTtZUNdFe3b4dqq8/xf2PED07sqy8vlhDKLrGwUsYuYFIf0NihfHopsJcBDgj4vPSiWhOvGyW/aGBXRsUcORZVIirUb1MT6+oZCJxC2/POhDV/vUwBBAfBiURJXSGJTZwPoSwCgig8vUgieuC241Q6AFCb1UlzST//6C+aW8ui+Sg2cBQvBm2BBX97uT0gBAAVCABY4K2WrZzZOPtU5cPvQ+j07OY6A+6nLkG0JOSFk5DhtljobknebWZ/XNkprK0Nrq3s3VnZurGxUTXskvvb1uebZxdpINJnbLEtKC+aBq71nXmxfWsE7H9hbzy4tmHJKsVVRqstWIgDlRIsou9lUFXCoYlOGdVEAAEoWWvy352+gMZs6EiL4sOhUJCIEty7/JumptxgDOHrz5BLwHJLBjcatrwygCd8851XHc0xv9h9twQgkQjRa3fHeqUinX/rEc8vnVn705w81Y63QeU30Xave4UZfhwlgAEoIiSrt/Pn7Lvzwlz/za6ePVtT9uxTh8smOdhfXx1ymUjNTVsncRn2Fu8ylHpc2mPpKOcoMXCmplTvNzHpnZhybF/P6M0YexpJrlTvly3PmtQvcGBofz+YWS9WmVHLRlrQV5YC4cJEgnCsIg+AvLCw4CeeY87MctlzXg5jhKAHELQ4wFEgzBRXykzpD2DJAr4tDiovPAARi2DRUEPTPazDiIO4NOubt2rb3i8/nCmoAC64SRzse2rX/H9OJf/LS2989E91aJnBMBpEYUXzpOGpCAiAHRIgoqFHGpuz3/frM+T+cf+wjz14+oKv7k8U1S6d7JycFV9StFXN7o3a1k3aQUwJm04Xsaqe6mvG3ltrrCE7E2VLjA0da9+5vLy7efv7USil/Rq4mt0y/+7axS3pxMYkybRxqK1Ew7kKCIeUphAjEoTAtLOigbQCAybHwtjqZ7YIRK2IHJxgDDDLEIWYY7OIAxWy+Vqylb9z2D2jwHh/1Fd6dDPQGgieNAFz0DmyVojdfqEAAxIHKCBs1fez90/b48pf+9fM/+qkD/UTnynjvGpEsGUZNSimgDJUACZAG2lGGsYemHrqv3u115/5qbeWKPtrIjk2VXzzXPl9J//z08tcqbq2TRyU/AM7hdEzr3epY6eiXf+DYLc653qm89Oi3bPvl5TtfWNhzqXFio7fcz9/6Ycf5mXN7Z6FMDolJ584EOjNSvurIAsJgcKaIIFoKNKmDHMm2OPxGGlP0jYIfQAg+mxxyzIAARCGa44Gd8RGMAyEg3zeMsBXcBtwU5KBekHkgsBCFYFHmODBmXnhQQDioUHIQBJycqD/8T2/7Px9//ul/fuW2jw9btJYEKmWVlDNygEo7JFKEmkkBGYU6RjTlMZ246Sw79NGJeh9nrrjxU/S+vflfvb78hVNLc81M79v5Y781s+/wzGWju+nKrc31+fHdFyam8nJz1Jqdkt/9dlzYlemjyZUNM/8zZ/bfMbt73p3eOZ6ZkhLLRFY0g6c5JhJkB+zjC1ACjlEYSSEq8XnQolmwqKB8c8GEnwTgbSl57tgAIWxWLYF4ijQA4EycA3REHgQiBACl0QcivuvODVSBtpSlbZGN0KaibKojhuoA2ay1E4lRzEjjzkeOPPqzT/Rs/+GPli5it9mo6lGrdQSKLBGSJm2MMkSaSGtSOeiyUBl0CUrj61ljSaKuSSkv75TykIYNe+ityfHJut1V3l2Kh1y0ClOr0JimPHKpclmsYGw41o3R0djAUlvgyf2rS63xqcvJeIY6lq4wMhkRckIOEAWdCxVkLgAigIjOYyiCHApcWYE4ul4y14GYMMArfXoZw+xVL31rxJFvxhLxQTcBOWALnAI5pUFFRKIpitC3B/kEszBA7k1T0IfiBCsymlIAdLRZEl1gBDg4J/3EBHSAYPSue4fv/fStL33yVazXv+sD5XkbV9d7FeoAEhklSiut4khrbSJlnNKAKnKq1qWxdRmex9ICtRayz70097vPnG+v5XtU/LEX5L88HT07EUe7nI4IAIa4pSQTyVtas9JEiU3LKemKcUi4eNeo/jsz7csV0+yIRVZKFDEQGCImRx5sISDfiAAEwGGmELMgeMIwDwlfd5C9UWMKix7cIo2oUJCJEAnEMKPN2eXsMmbnx+U4lBSgByrXkWhLmmMFykTsqx99fzNqJ25gpnw2YZD/L7ZBKMwrFLdwU0L3PoS6riBBN5KYex/cV/mt6ulPvTAxU5urJreUVznhLFIuRtbaGOIItdEuVlGsIjSVXDeaychCXLoc87z6N4++9p/OLiQuOlxN/uBDb1t8l+01prM+zfXzsrY1kAaABe6TEoAMvAHHduZqsR3ZVztzCfdXpdbo5Bu52AAvIpMTAkPexxVfjUc+CpYCfBcVBtaFkENwcEbcSDCDKpYtoQYpIK1IM2vJI8mJlLi2y7pZv22dZYAcpYuqjSYzsRhHMdgINGGilQR6b4TQv+GdLm//B98SFKLwyLejOQXGVsRQwoDK4+fCw3F893dXWtmBz//yycljMdZENdrdJJaKcJkw4l7MZChLUJfBaonSuNIeKzXHaENfWMk++/rV3R84KK3yj0RXpr63lB4bv6cSz+WpQ73hXIR5gmAAUzIO0KEGMAjS7fVW2unq2dZb7tPJ5y+Vq9WMlUNljWFRDAionD9ofJE9CSthX1hVHNASzIJP7mBAyd9EMH69OGSuvFkGAVIYR1RKxCmVIiTgTGah01vtpf0MXE9UW5X6BiQm5ZQVZZQpKxdhsPZKQAMJiBMW3G7YvRYVTQXbr61WZ8uL4nwtthGE+sjB7zZz77q2+oWFlZ1j8USUjzhJrNGWjGQRGe3QcLvE7YhTdJBmYvONXP3q116h+yaP/fLBOerkoC5V4+Yw3FdOX7Fpz2Z9m3WUU4QaFQM51IxKIZUUsakj5MKCczapKJohKhEbBCAGcqRYiB0BICo/HT3M0pRBAzEjelDAd60IOrm+9Os6wQDAAOv3DhI7AAInoAkjRWUtZcJqFNXKVItUjM3FvNPs5twT21WWM6tclgtGCiuKSpoEPbm66NBuBzbMWQ0+mI//r1MTKDJ1Rczqnwwdqhhu3bs7MjtS+vFP3/eVW089/Zvnj8JelVMp6ZRcboD9JGYyzmnbBtcuK6yoTOWPzrVXj5gD/2DfccOHZ4ebTBeRQXVH2B1UdgXyNeEekBJMkMLsRbEEum6kmq62508BAAyn/Qm2znBfCQMQgS+3ICUe+BA/7yGUTmsAgFBgSyERCSzgBJRA/iYBpoTYZbBRffyMFjBHSAEMKlAxCmBcBzOkkpG4MV3qXys1NzY2MtdTWY9BmNG1TVY1uqy0Rq2RfI+gEnQIxZEmhSIEV40KcKxIZsM2YYVXvd/u9d+DeIxKUSm656dub7/aOv2F+bGNeGb/cLVvU4k4YiThvlJoHOSddd1q4BWX/9LXzvzsZ46Wjgx/s5e1e2mlWl5TUYnBIdVQZwQbLDkoRwAUmlIJhMBVJCuVsnRqD+ALNokbKYlSrLQIS67AV7IVQzdQoQQ/DEmIi/pVPygy7EVBFHBchCfFtQ0re+CRW3VZYVGdI4iIxICMhGiANKBh1JaMYImxzLpqowZXGlCrcyXJCftWskzEMRFrzUajQiBSGhR5BpGi0cMNxuQUWg6F71HkkDB4MgAYblSCrQxsS76PTDlQDsGU1eT3zsB0fPaJ+dpQtifjNscrJhqOenGOkqsoVSZXl13/t0/MNX5w4shPHpSxRjnGrpBCHCGsCcTMEcMqwiUXC5WqWpWRBlCUlbzK7am0OTa38tKrvdWX9M5bxq6M1aO8J05ZjAUNg2bUAGFOLwBR4YCF8BwLm7+la0WEYLHJz164mWAO6LKPV8UJszADOJ8cJMWoAI2QtkgAmlExRICxUIwm0XEsiXYassxay4iilUQagFCRlyqR75gI08DcIAdKAIBEPveIVHjR2w7YAejgDRIBhmgZScgPuNIq0iP7aPRgfOLPLr96tX9xNZ1P7chMrz8HrT7M7E6xlh7P+WSuH/y9d+qZUaMoIsoJCLiGPM56LNWRmNepdKaXINGwcTFwJJbFd22AAajaHJU53akuPX4+/cgRnKChq8u5K+cYWxUJakDFvggdC+Me0lUeBQBVQJkef/IjtGSpJTcTzP2PHIzKOsAbgA6YwVlxObADcQiCxKgckoDy/T5KDIAmMErFURTFJcMGcwFQqDUZTUBEhAYpQiQgH+VSaCktmBsKBBuLk22LMILzVgiGEAiRlLedwWQiIpKIkbysRE1rc1vt4uPNtYVevY7tjnrN4unXN569mG3k7olF/Lu/cSy+fzKnzEgKkmeCqeg+qQryVF6KpfYy1S/18rru13Q+bFvlvGsR+xQhkkWVJ0PL9VvU3oPXHr/YPHv1PY1mNJ8uy1CfKozGoQEM84+8pREEPzPG58R8ulf8BEFBgIKbZnGbYK6rK5MixEAAICQWcWIzl/cxU8paxX1igyVHFAkaVkiIYLRQIqaOCcV1NT5eaXSszRXZWIlCZpKMVAZkfDYAHKLyZRKWfasjgmARY+Kgmhc2rd0gCMWis34w7ypUUSsAheR0XKvpve+s938z/ttfOPG9H9vz0E/uPi5V+NbliVdXvvn4ykOf2tHc3xnPLvdJi448UwOyzPd4DW1X0wN2qLbSm5al589hozZ/R912x0ZF1zIwMVon1EV1LYXc5EfeN/nsfzg7pIkNAyrINJBCRc6S5wVBBFaBWYSdBJgWAlOgz1WFSLswqjcWzBaY2qOOXqcQhTOXd7N+anpG97UqZ2RLWC4REJMSBUAEWgHEqKraWEpYnEFJEAy4CJzxWLUIevxXxHjYksCF/DQVqz+4jUFdgIcMBnBAYTY3sfAAvDlQjrRCGYry6XeM7fzVtzz6mVM7Hx6f3p3vuUMNvfVw/RPRuWrS16ak8kbeXnFpk5XRqAg6pFq5fG1l/W9eLM//0eMwmajpSv+OZufo+JIZStFk7P9GsZyn6fLStWY+EynoP3+5svsukBwpR9QKckWknKVA0WkJNTMhCflSKj/yXnwOn5D8csvgz73hUfb3D0QVDYiICpC4yMh4/qLc2W6e9vOsy1mObAmQMAJFQB6o83UYFsSBKMSIVAl1gqaEKgITIUVAOsDV4UYKtR4kjYrUAYhnbuCA94kX56BGRxfwaJj+Io7FM72IBhFEU4pcQy4/vbzyrcv52ewP//3V0e/fne8abepygjjp+jNOrUX1edcYMUZApWAabv3Ys5c/80fNpa+/vHJqufn01cvfaI3eekvnwGiJ8g5jKjiK+ajrinRbhqLJCJ+Zf+2VxXv24irX+q5qMWbSQoqJmBSij1fEQ4yD2YGhQQQRQr8ICJEsteS58zfSGIG8b7NuDiEqRA7BBIs4cIw5c573s26W85pZTpLyaGUUzVhN6gJGkCyAQwaw4CchA3iyAGJRnqibfaqTBNGJ+BHSnuzJsWhv/SEUGxCwD++tuMDN53t7JJxiiORrZbzqOAAR0Agi5JCjvLu/1qx8bOyLP/fKhWc7SUL/9eNPJA1jM957WyV6V6k+O2Ioufi5jWvdXs/avJ+Wr61AtcxfPnnLRx/4oV88tvzYi0v/8cnHPv7Vg2v3HvhIbVGSi256d9wdd92ehjHbG567cHhH/lnLpy52Z3avrLaGEUu+2VNYSJyfmC1KgB0qEWLfiifIHqoSIkdCJAIC+Ta8bFN9SKOKiBRtezFEE0UJxZbEdCH6UNTkTxpvHAYgF173HbAFoRx85s2uLfHUDZ7c+uobn/TnMQtbcTZA20ghuCYCpX1TGzgrg/JGACAEZ4WMIk3IwrkTATJExk+UI18SJQB+ZBHnwk4AgIi4SJvC5p9d3NAbII3NOx9cjiF3N3plU8lucN1sAXHw4wZvlu2vvnFF/79f/qB84xf6QmwJBUFbnve66M8XEOGCwKgQ6rZwF3xfa/GLN1v+m0nl+nuFN92n37m+c33n+s71nes71/+j6/8Cz/ls06ovG+cAAAAASUVORK5CYII=;" vertex="1" parent="1">
          <mxGeometry x="809.99" y="210" width="179.62" height="140" as="geometry" />
        </mxCell>
        <mxCell id="tSoKiZYMsN7kQP5f46Wx-98" value="" style="shape=image;imageAspect=0;aspect=fixed;verticalLabelPosition=bottom;verticalAlign=top;strokeColor=#0BB8AC;gradientColor=#FF9999;image=data:image/png,iVBORw0KGgoAAAANSUhEUgAAAI4AAABqCAIAAADlSv7LAAAAA3NCSVQICAjb4U/gAAASQElEQVR4nO2d2XNcx3XGf+feO5gZ7BhiABKAAG4gJZsWF9GibEWSF0UyvZQtWxVX4kpVUn5w3vPgP8OVl7ykkqokdpzYdBxLiRNLsShblkLtEilKBBcBILEQIAEMllkwM7dPHi5mMAAGwKzAANRXLBbm3u6+fc/Xp/v06dN95W/++r/f+MPHGBQAAQWBOLMjet7ojC7d8e5KyHoozINAnZ9jX1N/s6DLCVZBRFR17f/eLUBX5s3eVcONV+TOMKpLVdoYkvO3skkWyZcmb5bsxdws5ReeSaPD+nZCP0CUjCjWikVEuru7f/SjHzmRkYWxt+6qyfN0Iwcv688XmVOMV7hfmo5xKql3RPCHZO/D6k8WIMgSoNy5ydjbqKlC4bUCHbdGB807ykYvKSKxWExVHRRVzSvuRt37IN+b4IMx3jKkGtjXy+cbdC+gQlOXOsHq8ARA3+NEbhEdr+IjthcGk9SYqskv/Rx4SuZsmEaC7NnPEx1yzGjaT7NPg0s3hPAxrI1zlwPBF8TfJLHbun7/urPhsjhh3tuUpywKEna97ln+IWCBg79pxQhRcYjFvod09iZuvJqP2WYU0QyL1AtBHHoep6Wb5k6qyxW09dLUS+Tqru0Di0JxVDmNPPhnNHUiVpXqs/JxAVoOMXPNM5HudRQhchGOfEOa924RT7CktVVW3e2CLsqcwS08Q8FSFwIdNHfqbpXcFkMhqhMuqcKzFK4gWtdKoFl3rUG25VC0wmaFokra1fTA+DsTv5k/fvx4KBTy+XyWtWX94C6EILOMFJVlE6pcUrMyfJeBab2enJvndXPp0qVQKHTmzJmjR486juM5Qj5BCUgSq5hWKTrDxwP6HykSS4Uq0Wg0FouNjo594YkvnD7xSLDJVyUrw/OhqKLs1uZQ3FiyrpgVkyJ6WX6WIr6KfFU1xn355dfP/+1UKmGqMXoZY0ZHx4aHb6YThU/ndxLmZGyagQpolaIJIh/KL1TXtSaNLryT/veTM9/u9Idt2y66shvCdd1Lly5OfGT1xbtEd9+g6FlnxbXB/FJIyMwl+fG8jm2c2Zg7f/8Pf/faa69NTU1VSreMMbdu3XrhhRfefOPN1IJouiKl1hYUtJgZlYf8WpVgJqFzm9Kuqq7rnj9/PhKJnD171nHKdN+q65qhoaHnn39+dnZWVZPMG01b+MortuaguHflo2Lbdn6tsvHb1BX6YNXR0dFYLFbck1cXgnF1aGjo3LlzkUjE09F5HUmxC521ipkr0lJnPaoatKPeahMswVrl2ZEMsj8ty+rt7W1qaiqh0h5UUcPU7cQvzj0Xjydy73ziqc0if5dl4+vXb0zKxQTzUSZiOuX1rZZltbS0NDQ0zMzMJBIJbwG+u7v7zJkzJU+wVJkbY/x9xq+bxTifcLMe1htdpFE7G3hSkJTEPpaXZhhMydyTf/zk4cOH2tvbR0dHR0dHBwcH+/r6Tpw4EQwGC3yep0BLtAoYFu7Ilec0PklK7hX/omAFaZ1npKhWuYEhIJ7ofNpwmKeT1oJ86sOTJ04EggGgp6dn3759x48f9/l8S5a6ZmZ02cARWTl3VdQQn+PORxK9reFP09DJ7Xe5O6DxyaVca6iSXelYt7B7eWyW0QQzhfciBdlsNnVBQv19f+T351y0bY8kT1E0zdwk6eTSXbEJ9SDZ4hXjcvcaH55DjQpMfIAKYpbWohRNEjM5nmZBbHy7VNOkQTsa2JtgpvA8hZrXokwP0X0681vRTMSUSTF6kcgwMwO4WarqOP492nozWqFMXpGrzynu0gVZvZyi83pbSQqiIIiF1SuP1Wnp1koNQ12SaRKbJ8xBoVQpJGaZGyfQikA8gpvC8ZOKcfeajL6uoqA5BmWSG7+h7zGcAMD4+zJzQ01y3fIFq1V6+uWrU3pVwcLu4nSbHijqZXYINE1yUj6c08HqxFYo0TEu/YRAPQiLcdw0tkM6iUmp5Atki45z5ZdL0wGT3DjYDSCooYC2dvKZjFZVLx5qu6AgKeJD8vKEXizWuVmMOAypKMkoZHq1TXwjygZqlBeZmdzuRIqEQ2BSPhzTt4tyLKlqOp0uWi7bZZPlWpc7FD4Cihvh5uY9zEpEo9FXX311Z3QyBqYhDnugfrsrUwZEcVMFOFdXIR6PX7hwodapUjAwD2OQAP+OpcolZUgDRUUpeQiHwz/84Q9rkSqFJCQhABZ8BAkQOAqLmX0WHlxYgOadME+2sC2sKJMx7pRWQo1SNQSTYEMYIpldLu9DCNpzUgrMgg0BsDNXahOeuWRwPd0qAbVIlQV9EIU4TGSkL2BDFKYgBAlICvXKFExBPYShuTbfZzVKtI1q9NUCcBA+XHM9DdegDlLgKi2QgiREYQ66IQQ2NboWKcgdLhdr/mVRo1QBzdAAC2uuKywCIDCX+QMIQRtcBB90Q7hCnaFWslOVMYrYpbMKtUtVgiIWgC3oYGkQiMI1SGfYsouXtWfX2BAHFwLguanL58ymzlBiEFZNuwYKfCGFdnBgCFIZgd6EAbgJC5BmaYfspovK2TSTMACX4SKMwBQsUmrPtVy4HpanLJzSSK9drfJDEKIFpKyHXpjL9IceXIjALNwBG4JwOONqWU9UBtIwDdMwn2HdhgmYBB90QVdZuqXt2h+Rk+NFOpY81C5VCzCXMcE3htdBea0+t5fwZJqGNCzC6yDgg31g5VOvOEzmeM5W7dpPwgg0Qkvp74RF3UH9YtqKTZoPis1bo1R5oimk/XrSd+HuZr25x7rLRrFCG5eQylg05cAh4KeURbgaHatcuF1Y5RRaIVoJIW4K2VZ51ShVpmDRe/3YNMVsKisVQUpSh9UocbCrRaoUZgq21AVG4daWuJTaM1Z7mWjR+0qIGalFqtIwWozoo1vyGgZaK1RUQFusggymFahFqqYgVnuO11Dl1l8ChILSXuwrlmoBCnnMXVl5XRQVjKBF1ElhrvZ4AroKmzkUAgun8C0BWTiwvmA8Wa89NEJAVCwDLCdQ0UMxmlyA+nkO/04W2hk+ru91sFjEO84JUzW5LF+Cg2o9CHaPfm6OkaI8TBmqrJxTzWxXVSSQwkkvldwUoy2ylBJA9diItqz0JKjQNqD+aCYKQlVucOSi1fAV/d2nMXaBtTI1GUCxepNF2eXZ0oG2QQR8kCzEaeVIXdL58rtqZ5IqhCeZazU9A6Y+s15pG3wrHSHikieiLKeVeG/mxPX0Bac+bqbbzRv7SVd4c+OWob5yA5VCAoY0ZPMXrlwSaTD6K5ScxpC/rTo89fv0x/+1chFF1/xResW0fix1elxijTL+fR1qKWrcqh1UME7LwAjEEKHJ0c+neSXDU1DYrwxmlGy18C0NzupSsEn2XyE+6KKgGozK0es4u/kgxgIRh+lseLhEVAegDoIijzt82+EHQgc0rPUqb5UPUIx7+rfO+B73/Y1imw1Ed+eO+iW4ML68UqOGQQRb/1wIoEFwhFaHv1LmDJeVIWX52LYtnFc5CfexN2TPvJHVu2A935oFSRgroKuxoA7s9ZczahazGec9oKQNV4U+i24hJMujoQpNNo/YfD13grCVnnXV0DV55rWhf/pyY9puNxKEuswSRgvEwYGwMKEkhWvKemHUIeiDmKDK8JbMl/2VeIQL15Z/KcyDZfMQkLd4wZd7fWsXQay06X69+Tt1w88/YuL+p12rPlMDAQMutCntcEu5sn4xdeCDNiWSCRGsKrS8NSoPBu5CMqcfU8ZtPSW0rZ9Jto8qQMyeI6/Uf//SrV9/986NzgOGOWFCcJEEvGxUMwbQBgSMQgS6YGGzlBWBQkd5TzEwA9dXjDeWMm9z/4YFby9VgJhg20z48+cv3PrO5aTvtjJllmZk2TfZWC4CUbi6VXsd9pc9pKdgYPU1tTi5ma/KseQp5dfej+1y12pr39W2v/zp2AMTEZ8rolYxVbGhpfIehHVRflThbL6pj2y+oiKWHhP5rOfV2jbPulimsXOw/6s/63nykhUsLibEhfkqVWsN7LLXqFyK2fG7EoLP5ovISajb3kUQ9TVMtR9919ccL1ZBtmzuFS7DpvAq6bKuKVsARLQOTkBw+9er/E2je09dUqsWJ742dJQxSCxmPH4V6QO2nyqx0s09g76WxRqczTZAQxnZ/TmTkPKx/VQBjftu3P/s/zhtizV1oLqWHaLk7TW6WSEp1wRVIqZp7+X+r//W1xqvKbbKgUK63IFqBWqCKkCsVNvBN/c/9ZJV59YIW+X0x952levCValYgGKtUAWAth24GnpwWO2aoMoqL0TJwIIyXblXqSmqcAJz/Wd/8qk//U/1VWQkLgsGAqXm9dwobkUn6bVFFSCWaem7uvfMreUYgu1DutQJnHcqQKVGKQ81RxVgOdHeR/8t9OkxbLO9FvwEJEraVuWWvRlrLWqRKlBfINH/1X8NP3RTZDt7wgW4VtKsSCFeaRdlbVIFok5gofvh37d9ZmQbIzKa4IGS3LVRGLlXqAKgfs/g/c/8uP3khFrb8zGmtlLd6neqINmapgpRSHed+t+ex1/3NSe2eL5lQXORWSoe6pWLGt21mANt3HejqWs4Nt0T+aBLtzCM0C4yTFMhlgn0KO78zMJQ21qVgap74EuvGDtZgy7dLAxchwG4Up3ltJ1BFWig7eoD371oBbZgcyJkDlgoPG47CbcyKlWl5rRTqALV1gPnwyevsFVup+w++0JE7+0Gr6qpunOoAsuO9zxyoeG+aaq/DilwG2LCXrgvR8M2oK3addpJVAH+5rEj3zrnD89Xmy2FIDyqHIWD8Ck4Dg+sL68t2L63w6gCDbbcPvrtn9d3R6rKlsKTOZ51z3DvhBOZyP9VgpuuXlVy6rDTINrYOXLkm8/7w7PVY0tgUvL4WxvhfjgKXVV68PrYgVQBaP2ewSPPPIeTrsa8WOFRkVYkme8jJY2ZoPm9GfG5BZ9dUw52KFUg2tgx3PfUW+JU3p8r8CB6SrUpXzOQzOmQR+Az0Jw5rbraqH1vxboQy9138jxiDf/XaUwlt662SEEzKgvaIAi3Bbf6M4gdTBVg2cnuh17UpI784bSJOeXbywInhCe1iKMKAnAGrgrRKrO1YzvALNTtPvNix6kprHInoI3wtCVfKoYnDw26FU1+51MlKpbbc+anzf3jlLrGL3Cf8H3hlNES4iniQrr6HeDOpwqAusbI4bMvNu6/W5r5LtAFDSUtiglcF8r6fGth2CVUAYGW4YNPv2g1Fh12p9AinCnV2lZIb8lW891DlTfZOnj2/+yWVFGTLQvaoa5UYcclZxd8NbGbqMKy0+Gjrx762kuFm+4CD8EzxZsSWRR+dmuZ2FVUAWK5LT3X9hwewc5OjTdq8WE4xcqd7EUioPR/olUlQX31d48++8+th0exVJe2zOSRpECz8IS14nswJcBUIY4sL3YfVQCWkzz0jef2nRp82I4FrRu550xlSTNwH/SXHRSaFIY+0apyUNc4deCpX+69f+EA/T9AnoUwhCGU+YJSu/CFSjwoqJzYkg9E7mzH0gYQFF/05pdePXr3K2136kNGjgCQhlkYgl6tzDfKBI4pH8Bk2UVtjF2rVQBi6kOXE0+/nG6NY6lkzs9vh8+Wt8l3FZqU3uoPVruaKhAxswfevv7Nl9LhFZv4Kz60PKY8KqVb/IVg13aAyxAz0fvOwlkm/uUrJul4JwvsySw7VSoWrB4eVq7AVCVKy4t7gCpATLTvXecH8xf/8TvuvO9dFe8kmWMWB5B9qn7wabnMVfAc4ry4N6gCxK1rvR4+cW38tftxLVcFeNfwHtou+KBD6IJ+aNASRwULHKmi2X7PUAWWbXof+5VJ+SbfOqRpm4wf/a4CjMI7EBY+JzyopaiXA8/C74RL1WFrl5sVK6G2L7n/i7/a+7nBtYfPWGDDlPKS8p4QLz5U1sCUMlGpyq7BPaRVHuy62P4nzqn7rYk3+jW12q0rEIdfK2/CQQiJrNItG/pVg/l0LgLPw0L1OkARSyx7h56pXRrEcfsef0Es3+SFQ7LOi8/AO17ildctuC1yBlrXrEM2QYMQr/SmPRGxbRERpzt8qvegsdQIIAKoGkG8v/FOBM62rewBwdmUYqGKyHLK7E+R5aKyP71j7VQBRfNkB1SXb61E5ssX3snkSx/C8LKvuCWW9+jVKbM1RPoOpNI97W6qRcES0TXPksxFT7WMqiWCF82p2ily37JvURExqn8ickuXUqqqrCxWMheNquSUn32ELolluT7e9Y7OgK/O/n+dsi1DKqGfuAAAAABJRU5ErkJggg==;" vertex="1" parent="1">
          <mxGeometry x="806.03" y="359" width="187.55" height="140" as="geometry" />
        </mxCell>
        <mxCell id="tSoKiZYMsN7kQP5f46Wx-101" value="" style="group" vertex="1" connectable="0" parent="1">
          <mxGeometry x="200" y="277.36" width="120" height="190.82" as="geometry" />
        </mxCell>
        <mxCell id="tSoKiZYMsN7kQP5f46Wx-57" value="" style="group" vertex="1" connectable="0" parent="tSoKiZYMsN7kQP5f46Wx-101">
          <mxGeometry width="119.99999999999999" height="190.82" as="geometry" />
        </mxCell>
        <mxCell id="tSoKiZYMsN7kQP5f46Wx-15" value="" style="shape=parallelogram;perimeter=parallelogramPerimeter;whiteSpace=wrap;html=1;portConstraintRotation=0;size=0.2;portConstraint=north;rotation=-90;flipH=1;fillColor=#f8cecc;strokeColor=#b85450;" vertex="1" parent="tSoKiZYMsN7kQP5f46Wx-57">
          <mxGeometry x="-39.99999999999999" y="39.61660899653979" width="159.99999999999997" height="79.23321799307958" as="geometry" />
        </mxCell>
        <mxCell id="tSoKiZYMsN7kQP5f46Wx-16" value="" style="triangle;whiteSpace=wrap;html=1;shadow=0;rotation=-135;strokeColor=none;fillColor=#f8cecc;" vertex="1" parent="tSoKiZYMsN7kQP5f46Wx-57">
          <mxGeometry x="6.166666666666666" y="129.02469273356405" width="5.346666666666666" height="9.633438754325258" as="geometry" />
        </mxCell>
        <mxCell id="tSoKiZYMsN7kQP5f46Wx-17" value="" style="shape=parallelogram;perimeter=parallelogramPerimeter;whiteSpace=wrap;html=1;portConstraintRotation=0;size=0.2;portConstraint=north;rotation=-90;flipH=1;fillColor=#f8cecc;strokeColor=#b85450;shadow=0;gradientColor=#FF9999;gradientDirection=east;" vertex="1" parent="tSoKiZYMsN7kQP5f46Wx-57">
          <mxGeometry x="-33" y="39.94674740484429" width="159.33333333333331" height="79.23321799307958" as="geometry" />
        </mxCell>
        <mxCell id="tSoKiZYMsN7kQP5f46Wx-18" value="" style="rounded=0;whiteSpace=wrap;html=1;shadow=0;fillColor=#f8cecc;strokeColor=#b85450;" vertex="1" parent="tSoKiZYMsN7kQP5f46Wx-57">
          <mxGeometry y="32.353564013840824" width="6.666666666666666" height="126.11287197231837" as="geometry" />
        </mxCell>
        <mxCell id="tSoKiZYMsN7kQP5f46Wx-19" value="" style="endArrow=none;html=1;exitX=1;exitY=1;exitDx=0;exitDy=0;entryX=1;entryY=1;entryDx=0;entryDy=0;fillColor=#f8cecc;strokeColor=#b85450;" edge="1" parent="tSoKiZYMsN7kQP5f46Wx-57" source="tSoKiZYMsN7kQP5f46Wx-17" target="tSoKiZYMsN7kQP5f46Wx-15">
          <mxGeometry width="50" height="50" relative="1" as="geometry">
            <mxPoint x="66.66666666666667" y="14.522788581314881" as="sourcePoint" />
            <mxPoint x="59.99999999999999" y="14.526089965397922" as="targetPoint" />
          </mxGeometry>
        </mxCell>
        <mxCell id="agF6G3nApyZFt4K8N627-18" value="" style="shape=parallelogram;perimeter=parallelogramPerimeter;whiteSpace=wrap;html=1;portConstraintRotation=0;size=0.2;portConstraint=north;rotation=-90;flipH=1;fillColor=#f8cecc;strokeColor=#b85450;" parent="tSoKiZYMsN7kQP5f46Wx-57" vertex="1">
          <mxGeometry x="-24" y="59.42491349480969" width="159.99999999999997" height="79.23321799307958" as="geometry" />
        </mxCell>
        <mxCell id="agF6G3nApyZFt4K8N627-19" value="" style="triangle;whiteSpace=wrap;html=1;shadow=0;rotation=-135;strokeColor=none;fillColor=#f8cecc;" parent="tSoKiZYMsN7kQP5f46Wx-57" vertex="1">
          <mxGeometry x="22.166666666666664" y="148.83299723183396" width="5.346666666666666" height="9.633438754325258" as="geometry" />
        </mxCell>
        <mxCell id="agF6G3nApyZFt4K8N627-20" value="" style="shape=parallelogram;perimeter=parallelogramPerimeter;whiteSpace=wrap;html=1;portConstraintRotation=0;size=0.2;portConstraint=north;rotation=-90;flipH=1;fillColor=#f8cecc;strokeColor=#b85450;shadow=0;gradientColor=#FF9999;gradientDirection=east;" parent="tSoKiZYMsN7kQP5f46Wx-57" vertex="1">
          <mxGeometry x="-17" y="59.7550519031142" width="159.33333333333331" height="79.23321799307958" as="geometry" />
        </mxCell>
        <mxCell id="agF6G3nApyZFt4K8N627-21" value="" style="rounded=0;whiteSpace=wrap;html=1;shadow=0;fillColor=#f8cecc;strokeColor=#b85450;" parent="tSoKiZYMsN7kQP5f46Wx-57" vertex="1">
          <mxGeometry x="15.999999999999996" y="52.161868512110736" width="6.666666666666666" height="126.11287197231837" as="geometry" />
        </mxCell>
        <mxCell id="agF6G3nApyZFt4K8N627-22" value="" style="endArrow=none;html=1;exitX=1;exitY=1;exitDx=0;exitDy=0;entryX=1;entryY=1;entryDx=0;entryDy=0;fillColor=#f8cecc;strokeColor=#b85450;" parent="tSoKiZYMsN7kQP5f46Wx-57" source="agF6G3nApyZFt4K8N627-20" target="agF6G3nApyZFt4K8N627-18" edge="1">
          <mxGeometry width="50" height="50" relative="1" as="geometry">
            <mxPoint x="82.66666666666666" y="34.331093079584775" as="sourcePoint" />
            <mxPoint x="75.99999999999999" y="34.33439446366783" as="targetPoint" />
          </mxGeometry>
        </mxCell>
        <mxCell id="tSoKiZYMsN7kQP5f46Wx-20" value="" style="shape=parallelogram;perimeter=parallelogramPerimeter;whiteSpace=wrap;html=1;portConstraintRotation=0;size=0.2;portConstraint=north;rotation=-90;flipH=1;fillColor=#f8cecc;strokeColor=#b85450;" vertex="1" parent="tSoKiZYMsN7kQP5f46Wx-57">
          <mxGeometry x="-6.666666666666666" y="71.97017301038062" width="159.99999999999997" height="79.23321799307958" as="geometry" />
        </mxCell>
        <mxCell id="tSoKiZYMsN7kQP5f46Wx-21" value="" style="triangle;whiteSpace=wrap;html=1;shadow=0;rotation=-135;strokeColor=none;fillColor=#f8cecc;" vertex="1" parent="tSoKiZYMsN7kQP5f46Wx-57">
          <mxGeometry x="39.49999999999999" y="161.37825674740486" width="5.346666666666666" height="9.633438754325258" as="geometry" />
        </mxCell>
        <mxCell id="tSoKiZYMsN7kQP5f46Wx-22" value="" style="shape=parallelogram;perimeter=parallelogramPerimeter;whiteSpace=wrap;html=1;portConstraintRotation=0;size=0.2;portConstraint=north;rotation=-90;flipH=1;fillColor=#f8cecc;strokeColor=#b85450;shadow=0;gradientColor=#FF9999;gradientDirection=east;" vertex="1" parent="tSoKiZYMsN7kQP5f46Wx-57">
          <mxGeometry x="0.33333333333333326" y="72.30031141868511" width="159.33333333333331" height="79.23321799307958" as="geometry" />
        </mxCell>
        <mxCell id="tSoKiZYMsN7kQP5f46Wx-23" value="" style="rounded=0;whiteSpace=wrap;html=1;shadow=0;fillColor=#f8cecc;strokeColor=#b85450;" vertex="1" parent="tSoKiZYMsN7kQP5f46Wx-57">
          <mxGeometry x="33.333333333333336" y="64.70712802768165" width="6.666666666666666" height="126.11287197231837" as="geometry" />
        </mxCell>
        <mxCell id="tSoKiZYMsN7kQP5f46Wx-24" value="" style="endArrow=none;html=1;exitX=1;exitY=1;exitDx=0;exitDy=0;entryX=1;entryY=1;entryDx=0;entryDy=0;fillColor=#f8cecc;strokeColor=#b85450;" edge="1" parent="tSoKiZYMsN7kQP5f46Wx-57" source="tSoKiZYMsN7kQP5f46Wx-22" target="tSoKiZYMsN7kQP5f46Wx-20">
          <mxGeometry width="50" height="50" relative="1" as="geometry">
            <mxPoint x="100" y="46.876352595155716" as="sourcePoint" />
            <mxPoint x="93.33333333333331" y="46.87965397923876" as="targetPoint" />
          </mxGeometry>
        </mxCell>
        <mxCell id="tSoKiZYMsN7kQP5f46Wx-102" value="" style="group" vertex="1" connectable="0" parent="1">
          <mxGeometry x="360" y="252.77" width="150" height="240" as="geometry" />
        </mxCell>
        <mxCell id="tSoKiZYMsN7kQP5f46Wx-56" value="" style="group" vertex="1" connectable="0" parent="tSoKiZYMsN7kQP5f46Wx-102">
          <mxGeometry width="150" height="240" as="geometry" />
        </mxCell>
        <mxCell id="tSoKiZYMsN7kQP5f46Wx-41" value="" style="shape=parallelogram;perimeter=parallelogramPerimeter;whiteSpace=wrap;html=1;portConstraintRotation=0;size=0.2;portConstraint=north;rotation=-90;flipH=1;fillColor=#f8cecc;strokeColor=#b85450;" vertex="1" parent="tSoKiZYMsN7kQP5f46Wx-56">
          <mxGeometry x="-49.999999999999986" y="49.82698961937716" width="199.99999999999994" height="99.65397923875432" as="geometry" />
        </mxCell>
        <mxCell id="tSoKiZYMsN7kQP5f46Wx-42" value="" style="triangle;whiteSpace=wrap;html=1;shadow=0;rotation=-135;strokeColor=none;fillColor=#f8cecc;" vertex="1" parent="tSoKiZYMsN7kQP5f46Wx-56">
          <mxGeometry x="7.708333333333331" y="162.27820069204154" width="6.683333333333331" height="12.116262975778547" as="geometry" />
        </mxCell>
        <mxCell id="tSoKiZYMsN7kQP5f46Wx-43" value="" style="shape=parallelogram;perimeter=parallelogramPerimeter;whiteSpace=wrap;html=1;portConstraintRotation=0;size=0.2;portConstraint=north;rotation=-90;flipH=1;fillColor=#f8cecc;strokeColor=#b85450;shadow=0;gradientColor=#FF9999;gradientDirection=east;" vertex="1" parent="tSoKiZYMsN7kQP5f46Wx-56">
          <mxGeometry x="-41.25" y="50.24221453287198" width="199.16666666666663" height="99.65397923875432" as="geometry" />
        </mxCell>
        <mxCell id="tSoKiZYMsN7kQP5f46Wx-44" value="" style="rounded=0;whiteSpace=wrap;html=1;shadow=0;fillColor=#f8cecc;strokeColor=#b85450;" vertex="1" parent="tSoKiZYMsN7kQP5f46Wx-56">
          <mxGeometry y="40.69204152249135" width="8.333333333333332" height="158.6159169550173" as="geometry" />
        </mxCell>
        <mxCell id="tSoKiZYMsN7kQP5f46Wx-45" value="" style="endArrow=none;html=1;exitX=1;exitY=1;exitDx=0;exitDy=0;entryX=1;entryY=1;entryDx=0;entryDy=0;fillColor=#f8cecc;strokeColor=#b85450;" edge="1" parent="tSoKiZYMsN7kQP5f46Wx-56" source="tSoKiZYMsN7kQP5f46Wx-43" target="tSoKiZYMsN7kQP5f46Wx-41">
          <mxGeometry width="50" height="50" relative="1" as="geometry">
            <mxPoint x="83.33333333333331" y="18.265743944636682" as="sourcePoint" />
            <mxPoint x="75" y="18.269896193771626" as="targetPoint" />
          </mxGeometry>
        </mxCell>
        <mxCell id="tSoKiZYMsN7kQP5f46Wx-46" value="" style="shape=parallelogram;perimeter=parallelogramPerimeter;whiteSpace=wrap;html=1;portConstraintRotation=0;size=0.2;portConstraint=north;rotation=-90;flipH=1;fillColor=#f8cecc;strokeColor=#b85450;" vertex="1" parent="tSoKiZYMsN7kQP5f46Wx-56">
          <mxGeometry x="-30" y="74.74048442906575" width="199.99999999999994" height="99.65397923875432" as="geometry" />
        </mxCell>
        <mxCell id="tSoKiZYMsN7kQP5f46Wx-47" value="" style="triangle;whiteSpace=wrap;html=1;shadow=0;rotation=-135;strokeColor=none;fillColor=#f8cecc;" vertex="1" parent="tSoKiZYMsN7kQP5f46Wx-56">
          <mxGeometry x="27.70833333333333" y="187.19169550173012" width="6.683333333333331" height="12.116262975778547" as="geometry" />
        </mxCell>
        <mxCell id="tSoKiZYMsN7kQP5f46Wx-48" value="" style="shape=parallelogram;perimeter=parallelogramPerimeter;whiteSpace=wrap;html=1;portConstraintRotation=0;size=0.2;portConstraint=north;rotation=-90;flipH=1;fillColor=#f8cecc;strokeColor=#b85450;shadow=0;gradientColor=#FF9999;gradientDirection=east;" vertex="1" parent="tSoKiZYMsN7kQP5f46Wx-56">
          <mxGeometry x="-21.249999999999993" y="75.15570934256056" width="199.16666666666663" height="99.65397923875432" as="geometry" />
        </mxCell>
        <mxCell id="tSoKiZYMsN7kQP5f46Wx-49" value="" style="rounded=0;whiteSpace=wrap;html=1;shadow=0;fillColor=#f8cecc;strokeColor=#b85450;" vertex="1" parent="tSoKiZYMsN7kQP5f46Wx-56">
          <mxGeometry x="19.999999999999996" y="65.60553633217994" width="8.333333333333332" height="158.6159169550173" as="geometry" />
        </mxCell>
        <mxCell id="tSoKiZYMsN7kQP5f46Wx-50" value="" style="endArrow=none;html=1;exitX=1;exitY=1;exitDx=0;exitDy=0;entryX=1;entryY=1;entryDx=0;entryDy=0;fillColor=#f8cecc;strokeColor=#b85450;" edge="1" parent="tSoKiZYMsN7kQP5f46Wx-56" source="tSoKiZYMsN7kQP5f46Wx-48" target="tSoKiZYMsN7kQP5f46Wx-46">
          <mxGeometry width="50" height="50" relative="1" as="geometry">
            <mxPoint x="103.33333333333331" y="43.17923875432527" as="sourcePoint" />
            <mxPoint x="94.99999999999999" y="43.18339100346021" as="targetPoint" />
          </mxGeometry>
        </mxCell>
        <mxCell id="tSoKiZYMsN7kQP5f46Wx-51" value="" style="shape=parallelogram;perimeter=parallelogramPerimeter;whiteSpace=wrap;html=1;portConstraintRotation=0;size=0.2;portConstraint=north;rotation=-90;flipH=1;fillColor=#f8cecc;strokeColor=#b85450;" vertex="1" parent="tSoKiZYMsN7kQP5f46Wx-56">
          <mxGeometry x="-8.333333333333332" y="90.51903114186852" width="199.99999999999994" height="99.65397923875432" as="geometry" />
        </mxCell>
        <mxCell id="tSoKiZYMsN7kQP5f46Wx-52" value="" style="triangle;whiteSpace=wrap;html=1;shadow=0;rotation=-135;strokeColor=none;fillColor=#f8cecc;" vertex="1" parent="tSoKiZYMsN7kQP5f46Wx-56">
          <mxGeometry x="49.37499999999999" y="202.9702422145329" width="6.683333333333331" height="12.116262975778547" as="geometry" />
        </mxCell>
        <mxCell id="tSoKiZYMsN7kQP5f46Wx-53" value="" style="shape=parallelogram;perimeter=parallelogramPerimeter;whiteSpace=wrap;html=1;portConstraintRotation=0;size=0.2;portConstraint=north;rotation=-90;flipH=1;fillColor=#f8cecc;strokeColor=#b85450;shadow=0;gradientColor=#FF9999;gradientDirection=east;" vertex="1" parent="tSoKiZYMsN7kQP5f46Wx-56">
          <mxGeometry x="0.4166666666666665" y="90.93425605536332" width="199.16666666666663" height="99.65397923875432" as="geometry" />
        </mxCell>
        <mxCell id="tSoKiZYMsN7kQP5f46Wx-54" value="" style="rounded=0;whiteSpace=wrap;html=1;shadow=0;fillColor=#f8cecc;strokeColor=#b85450;" vertex="1" parent="tSoKiZYMsN7kQP5f46Wx-56">
          <mxGeometry x="41.66666666666666" y="81.3840830449827" width="8.333333333333332" height="158.6159169550173" as="geometry" />
        </mxCell>
        <mxCell id="tSoKiZYMsN7kQP5f46Wx-55" value="" style="endArrow=none;html=1;exitX=1;exitY=1;exitDx=0;exitDy=0;entryX=1;entryY=1;entryDx=0;entryDy=0;fillColor=#f8cecc;strokeColor=#b85450;" edge="1" parent="tSoKiZYMsN7kQP5f46Wx-56" source="tSoKiZYMsN7kQP5f46Wx-53" target="tSoKiZYMsN7kQP5f46Wx-51">
          <mxGeometry width="50" height="50" relative="1" as="geometry">
            <mxPoint x="124.99999999999999" y="58.95778546712803" as="sourcePoint" />
            <mxPoint x="116.66666666666664" y="58.96193771626297" as="targetPoint" />
          </mxGeometry>
        </mxCell>
        <mxCell id="tSoKiZYMsN7kQP5f46Wx-103" value="" style="endArrow=classic;html=1;strokeColor=#66B2FF;strokeWidth=6;endSize=2;entryX=0;entryY=0.557;entryDx=0;entryDy=0;entryPerimeter=0;" edge="1" parent="1" target="tSoKiZYMsN7kQP5f46Wx-18">
          <mxGeometry width="50" height="50" relative="1" as="geometry">
            <mxPoint x="120" y="379.5" as="sourcePoint" />
            <mxPoint x="190" y="380" as="targetPoint" />
          </mxGeometry>
        </mxCell>
        <mxCell id="tSoKiZYMsN7kQP5f46Wx-104" value="" style="endArrow=classic;html=1;strokeColor=#66B2FF;strokeWidth=6;endSize=2;" edge="1" parent="1">
          <mxGeometry width="50" height="50" relative="1" as="geometry">
            <mxPoint x="320" y="378" as="sourcePoint" />
            <mxPoint x="360" y="378.18" as="targetPoint" />
          </mxGeometry>
        </mxCell>
        <mxCell id="tSoKiZYMsN7kQP5f46Wx-105" value="" style="endArrow=classic;html=1;strokeColor=#66B2FF;strokeWidth=6;endSize=2;exitX=0.452;exitY=1.042;exitDx=0;exitDy=0;exitPerimeter=0;entryX=-0.3;entryY=0.654;entryDx=0;entryDy=0;entryPerimeter=0;" edge="1" parent="1">
          <mxGeometry width="50" height="50" relative="1" as="geometry">
            <mxPoint x="514.0124567474047" y="377.7412456747404" as="sourcePoint" />
            <mxPoint x="557" y="377.68399999999997" as="targetPoint" />
          </mxGeometry>
        </mxCell>
        <mxCell id="tSoKiZYMsN7kQP5f46Wx-107" value="" style="endArrow=classic;html=1;strokeColor=#66B2FF;strokeWidth=6;endSize=2;exitX=0.75;exitY=1;exitDx=0;exitDy=0;" edge="1" parent="1" source="tSoKiZYMsN7kQP5f46Wx-71">
          <mxGeometry width="50" height="50" relative="1" as="geometry">
            <mxPoint x="340" y="398" as="sourcePoint" />
            <mxPoint x="808" y="320" as="targetPoint" />
          </mxGeometry>
        </mxCell>
        <mxCell id="tSoKiZYMsN7kQP5f46Wx-108" value="" style="endArrow=classic;html=1;strokeColor=#66B2FF;strokeWidth=6;endSize=2;" edge="1" parent="1">
          <mxGeometry width="50" height="50" relative="1" as="geometry">
            <mxPoint x="740" y="412.2" as="sourcePoint" />
            <mxPoint x="808" y="412.65" as="targetPoint" />
          </mxGeometry>
        </mxCell>
      </root>
    </mxGraphModel>
  </diagram>
</mxfile>
